<svg xmlns="http://www.w3.org/2000/svg" xmlns:xlink="http://www.w3.org/1999/xlink" xmlns:lucid="lucid" width="1107.59" height="572.54"><g transform="translate(-125.71505963159876 -82.350260858556)" lucid:page-tab-id="0_0"><path d="M0 0h1870.4v1323.2H0z" fill="#fff"/><path d="M381.63 240.03h240v60h-240z" fill="none"/><use xlink:href="#a" transform="matrix(1,0,0,1,381.63492856099913,240.03059525097956) translate(14.125 22.799999999999997)"/><use xlink:href="#b" transform="matrix(1,0,0,1,381.63492856099913,240.03059525097956) translate(59.075 22.799999999999997)"/><use xlink:href="#c" transform="matrix(1,0,0,1,381.63492856099913,240.03059525097956) translate(17.700000000000017 44.4)"/><use xlink:href="#d" transform="matrix(1,0,0,1,381.63492856099913,240.03059525097956) translate(86.65000000000002 44.4)"/><path d="M946.05 574.9h267.25v60H946.05z" fill="none"/><use xlink:href="#e" transform="matrix(1,0,0,1,946.0454325126008,574.8893201338951) translate(7.199999999999989 33.6)"/><use xlink:href="#f" transform="matrix(1,0,0,1,946.0454325126008,574.8893201338951) translate(105.05 33.6)"/><use xlink:href="#g" transform="matrix(1,0,0,1,946.0454325126008,574.8893201338951) translate(172.9 33.6)"/><path d="M791.68 102.35h160v120h-160z" stroke="#000" stroke-width="2" fill="#fff"/><use xlink:href="#h" transform="matrix(1,0,0,1,796.6751022852156,107.350260858556) translate(15.099999999999994 59.0875)"/><path d="M746.52 406.06h250.3v120h-250.3z" stroke="#000" stroke-width="2" fill="#fff"/><use xlink:href="#i" transform="matrix(1,0,0,1,751.5170726251524,411.05748415656853) translate(23.625 59.0875)"/><path d="M395.96 132.35h249.26v60H395.96z" stroke="#000" stroke-opacity="0" stroke-width="2" fill="#fff" fill-opacity="0"/><use xlink:href="#j" transform="matrix(1,0,0,1,400.96117129340064,137.350260858556) translate(5.849999999999994 30.025)"/><path d="M584.34 146.95h54.4v30.8h-54.4z" stroke="#c92d39" fill-opacity="0"/><path d="M640.23 162.35h131.94" stroke="#c92d39" stroke-width="2" fill="none"/><path d="M640.25 163.35h-1.02v-2h1.02z" fill="#c92d39"/><path d="M787.44 162.35L773.17 167v-9.3z" stroke="#c92d39" stroke-width="2" fill="#c92d39"/><path d="M145.72 406.06h160v120h-160z" stroke="#000" stroke-width="2" fill="#fff"/><use xlink:href="#k" transform="matrix(1,0,0,1,150.71505963159876,411.05748415656853) translate(27.549999999999997 59.0875)"/><path d="M871.68 224.35v162.2" stroke="#000" stroke-width="2" fill="none"/><path d="M872.68 224.38h-2v-1.03h2z"/><path d="M871.68 401.82l-4.64-14.26h9.27z" stroke="#000" stroke-width="2"/><path d="M891.68 241.85v162.2" stroke="#000" stroke-width="2" fill="none"/><path d="M891.68 226.6l4.63 14.25h-9.26z" stroke="#000" stroke-width="2"/><path d="M892.68 405.06h-2v-1.03h2z"/><path d="M874.94 282.43h240v74.8h-240z" stroke="#000" stroke-opacity="0" stroke-width="2" fill="#fff" fill-opacity="0"/><use xlink:href="#a" transform="matrix(1,0,0,1,879.9442795350902,287.425648179242) translate(39.599999999999994 14.4)"/><use xlink:href="#l" transform="matrix(1,0,0,1,879.9442795350902,287.425648179242) translate(84.55 14.4)"/><use xlink:href="#m" transform="matrix(1,0,0,1,879.9442795350902,287.425648179242) translate(49.625 36)"/><use xlink:href="#d" transform="matrix(1,0,0,1,879.9442795350902,287.425648179242) translate(47.17500000000001 57.6)"/><path d="M677.25 270.03h188.4v60h-188.4z" stroke="#000" stroke-opacity="0" stroke-width="2" fill="#fff" fill-opacity="0"/><use xlink:href="#n" transform="matrix(1,0,0,1,682.2548173909097,275.03059525097956) translate(1.1500000000000057 17.525)"/><use xlink:href="#o" transform="matrix(1,0,0,1,682.2548173909097,275.03059525097956) translate(58.10000000000001 17.525)"/><use xlink:href="#p" transform="matrix(1,0,0,1,682.2548173909097,275.03059525097956) translate(10.650000000000006 39.125)"/><path d="M1165.82 514.06c0 6.62-19.76 12-44.13 12s-44.13-5.38-44.13-12v-96c0-6.63 19.76-12 44.12-12 24.36 0 44.12 5.37 44.12 12z" stroke="#000" stroke-width="2" fill="#fff"/><path d="M1165.82 418.06c0 6.62-19.76 12-44.13 12s-44.13-5.38-44.13-12" stroke="#000" stroke-width="2" fill="none"/><use xlink:href="#q" transform="matrix(1,0,0,1,1082.5734489599479,435.05748415656853) translate(8.074999999999996 35.8)"/><use xlink:href="#r" transform="matrix(1,0,0,1,1082.5734489599479,435.05748415656853) translate(-0.9500000000000028 57.4)"/><path d="M1058.07 466.06H1016.34" stroke="#000" stroke-width="2" fill="none"/><path d="M1073.34 466.06l-14.27 4.63v-9.28zM1001.07 466.06l14.27-4.64v9.27z" stroke="#000" stroke-width="2"/><path d="M429.36 411.76h182.46v29.05H429.36z" stroke="#000" stroke-opacity="0" stroke-width="2" fill="#fff" fill-opacity="0"/><use xlink:href="#s" transform="matrix(1,0,0,1,434.35659463381864,416.755364863312) translate(48.55 15.65)"/><path d="M744.52 466.06h-131.9" stroke="#000" stroke-width="2" fill="none"/><path d="M745.52 467.06h-1.03v-2h1.02z"/><path d="M597.5 466.17l14.22-4.74.07 9.27z" stroke="#000" stroke-width="2"/><path d="M444.22 466.06h-119M444.2 466.06h1.02" stroke="#000" stroke-width="2" fill="none"/><path d="M309.95 466.06l14.27-4.64v9.27z" stroke="#000" stroke-width="2"/><path d="M145.72 210.03h160v120h-160z" stroke="#000" stroke-width="2" fill="#fff"/><use xlink:href="#t" transform="matrix(1,0,0,1,150.71505963159876,215.0305952509796) translate(16.074999999999996 59.0875)"/><path d="M225.72 404.06v-54.53" stroke="#000" stroke-width="2" fill="none"/><path d="M226.72 405.06h-2v-1.03h2z"/><path d="M225.72 334.27l4.63 14.26h-9.27z" stroke="#000" stroke-width="2"/><path d="M324.6 274.72L821.2 404.8" stroke="#000" stroke-width="2" fill="none"/><path d="M309.85 270.85l14.97-.87-2.35 8.97z" stroke="#000" stroke-width="2"/><path d="M825.3 404.85l-.05.2h-4.16l.3-1.22z"/><path d="M225.72 208.03v-45.68h151.74" stroke="#000" stroke-width="2" fill="none"/><path d="M226.72 209.03h-2V208h2z"/><path d="M392.73 162.35L378.46 167v-9.3z" stroke="#000" stroke-width="2"/><path d="M446.22 445.84h148.74v40.26H446.22z" stroke="#000" stroke-width="2" fill="#fff"/><path d="M488.75 446.84v19.22h-.03v19.22M488.75 446.86v-1.02M488.72 485.25v1.03M510 446.84v19.22h-.03v19.22M510 446.86v-1.02M509.97 485.25v1.03M531.25 446.84v19.22h-.04v19.22M531.25 446.86v-1.02M531.2 485.25v1.03M552.5 446.84v19.22h-.04v19.22M552.5 446.86v-1.02M552.46 485.25v1.03M573.75 446.84v19.22h-.04v19.22M573.75 446.86v-1.02M573.7 485.25v1.03M467.5 446.84v19.22h-.03v19.22M467.5 446.86v-1.02M467.47 485.25v1.03" stroke="#000" stroke-width="2" fill="none"/><path d="M797.3 584.3h148.75v40.27H797.3z" stroke="#000" stroke-width="2" fill="#fff"/><path d="M839.84 585.3v19.24h-.04v19.22M839.84 585.34v-1.03M839.8 623.73v1.03M861.1 585.3v19.24h-.05v19.22M861.1 585.34v-1.03M861.05 623.73v1.03M882.34 585.3v19.24h-.04v19.22M882.34 585.34v-1.03M882.3 623.73v1.03M903.6 585.3v19.24h-.05v19.22M903.6 585.34v-1.03M903.55 623.73v1.03M924.83 585.3v19.24h-.03v19.22M924.83 585.34v-1.03M924.8 623.73v1.03M818.6 585.3v19.24h-.05v19.22M818.6 585.34v-1.03M818.55 623.73v1.03M871.68 582.3v-36.74" stroke="#000" stroke-width="2" fill="none"/><path d="M872.68 583.3h-2v-1h2z"/><path d="M871.68 530.3l4.63 14.26h-9.26z" stroke="#000" stroke-width="2"/><defs><path d="M143 4C61 4 22-44 18-125c-5-107 100-154 193-111 17 8 29 25 37 43l-32 9c-13-25-37-40-76-40-61 0-88 39-88 99 0 61 29 100 91 101 35 0 62-11 79-27v-45h-74v-28h105v86C228-13 192 4 143 4" id="u"/><path d="M30 0v-248h187v28H63v79h144v27H63v87h162V0H30" id="v"/><path d="M127-220V0H93v-220H8v-28h204v28h-85" id="w"/><path d="M33-154v-36h34v36H33zM33 0v-36h34V0H33" id="x"/><g id="a"><use transform="matrix(0.05,0,0,0.05,0,0)" xlink:href="#u"/><use transform="matrix(0.05,0,0,0.05,14,0)" xlink:href="#v"/><use transform="matrix(0.05,0,0,0.05,26,0)" xlink:href="#w"/><use transform="matrix(0.05,0,0,0.05,34.95,0)" xlink:href="#x"/></g><path d="M106-169C34-169 62-67 57 0H25v-261h32l-1 103c12-21 28-36 61-36 89 0 53 116 60 194h-32v-121c2-32-8-49-39-48" id="y"/><path d="M141-36C126-15 110 5 73 4 37 3 15-17 15-53c-1-64 63-63 125-63 3-35-9-54-41-54-24 1-41 7-42 31l-33-3c5-37 33-52 76-52 45 0 72 20 72 64v82c-1 20 7 32 28 27v20c-31 9-61-2-59-35zM48-53c0 20 12 33 32 33 41-3 63-29 60-74-43 2-92-5-92 41" id="z"/><path d="M114-163C36-179 61-72 57 0H25l-1-190h30c1 12-1 29 2 39 6-27 23-49 58-41v29" id="A"/><path d="M240 0l2-218c-23 76-54 145-80 218h-23L58-218 59 0H30v-248h44l77 211c21-75 51-140 76-211h43V0h-30" id="B"/><path d="M117-194c89-4 53 116 60 194h-32v-121c0-31-8-49-39-48C34-167 62-67 57 0H25l-1-190h30c1 10-1 24 2 32 11-22 29-35 61-36" id="C"/><path d="M84 4C-5 8 30-112 23-190h32v120c0 31 7 50 39 49 72-2 45-101 50-169h31l1 190h-30c-1-10 1-25-2-33-11 22-28 36-60 37" id="D"/><path d="M100-194c63 0 86 42 84 106H49c0 40 14 67 53 68 26 1 43-12 49-29l28 8c-11 28-37 45-77 45C44 4 14-33 15-96c1-61 26-98 85-98zm52 81c6-60-76-77-97-28-3 7-6 17-6 28h103" id="E"/><path d="M24 0v-261h32V0H24" id="F"/><path d="M140-251c81 0 123 46 123 126C263-46 219 4 140 4 59 4 17-45 17-125s42-126 123-126zm0 227c63 0 89-41 89-101s-29-99-89-99c-61 0-89 39-89 99S79-25 140-24" id="G"/><path d="M115-194c55 1 70 41 70 98S169 2 115 4C84 4 66-9 55-30l1 105H24l-1-265h31l2 30c10-21 28-34 59-34zm-8 174c40 0 45-34 45-75s-6-73-45-74c-42 0-51 32-51 76 0 43 10 73 51 73" id="H"/><path d="M177-190C167-65 218 103 67 71c-23-6-38-20-44-43l32-5c15 47 100 32 89-28v-30C133-14 115 1 83 1 29 1 15-40 15-95c0-56 16-97 71-98 29-1 48 16 59 35 1-10 0-23 2-32h30zM94-22c36 0 50-32 50-73 0-42-14-75-50-75-39 0-46 34-46 75s6 73 46 73" id="I"/><path d="M108 0H70L1-190h34L89-25l56-165h34" id="J"/><g id="b"><use transform="matrix(0.05,0,0,0.05,0,0)" xlink:href="#y"/><use transform="matrix(0.05,0,0,0.05,10,0)" xlink:href="#z"/><use transform="matrix(0.05,0,0,0.05,20,0)" xlink:href="#A"/><use transform="matrix(0.05,0,0,0.05,25.950000000000003,0)" xlink:href="#B"/><use transform="matrix(0.05,0,0,0.05,40.9,0)" xlink:href="#z"/><use transform="matrix(0.05,0,0,0.05,50.9,0)" xlink:href="#C"/><use transform="matrix(0.05,0,0,0.05,60.900000000000006,0)" xlink:href="#D"/><use transform="matrix(0.05,0,0,0.05,70.9,0)" xlink:href="#E"/><use transform="matrix(0.05,0,0,0.05,80.9,0)" xlink:href="#F"/><use transform="matrix(0.05,0,0,0.05,84.85000000000001,0)" xlink:href="#F"/><use transform="matrix(0.05,0,0,0.05,88.80000000000001,0)" xlink:href="#G"/><use transform="matrix(0.05,0,0,0.05,102.80000000000001,0)" xlink:href="#H"/><use transform="matrix(0.05,0,0,0.05,112.80000000000001,0)" xlink:href="#H"/><use transform="matrix(0.05,0,0,0.05,122.80000000000001,0)" xlink:href="#I"/><use transform="matrix(0.05,0,0,0.05,132.8,0)" xlink:href="#z"/><use transform="matrix(0.05,0,0,0.05,142.8,0)" xlink:href="#J"/><use transform="matrix(0.05,0,0,0.05,151.8,0)" xlink:href="#E"/><use transform="matrix(0.05,0,0,0.05,161.8,0)" xlink:href="#x"/></g><path d="M115-194c53 0 69 39 70 98 0 66-23 100-70 100C84 3 66-7 56-30L54 0H23l1-261h32v101c10-23 28-34 59-34zm-8 174c40 0 45-34 45-75 0-40-5-75-45-74-42 0-51 32-51 76 0 43 10 73 51 73" id="K"/><path d="M100-194c62-1 85 37 85 99 1 63-27 99-86 99S16-35 15-95c0-66 28-99 85-99zM99-20c44 1 53-31 53-75 0-43-8-75-51-75s-53 32-53 75 10 74 51 75" id="L"/><g id="c"><use transform="matrix(0.05,0,0,0.05,0,0)" xlink:href="#K"/><use transform="matrix(0.05,0,0,0.05,10,0)" xlink:href="#L"/><use transform="matrix(0.05,0,0,0.05,20,0)" xlink:href="#L"/><use transform="matrix(0.05,0,0,0.05,30,0)" xlink:href="#F"/><use transform="matrix(0.05,0,0,0.05,33.95,0)" xlink:href="#E"/><use transform="matrix(0.05,0,0,0.05,43.95,0)" xlink:href="#z"/><use transform="matrix(0.05,0,0,0.05,53.95,0)" xlink:href="#C"/></g><path d="M87 75C49 33 22-17 22-94c0-76 28-126 65-167h31c-38 41-64 92-64 168S80 34 118 75H87" id="M"/><path d="M101-234c-31-9-42 10-38 44h38v23H63V0H32v-167H5v-23h27c-7-52 17-82 69-68v24" id="N"/><path d="M181-161c11 16 11 39 14 66 9 87-81 123-140 81L37 7H8l32-38C30-47 27-69 25-95c-8-91 81-121 141-83l16-18h30zM109-20c57 4 58-63 49-114L73-35c7 11 20 15 36 15zm2-150c-56-3-57 65-48 113l85-99c-8-10-20-13-37-14" id="O"/><path d="M85-194c31 0 48 13 60 33l-1-100h32l1 261h-30c-2-10 0-23-3-31C134-8 116 4 85 4 32 4 16-35 15-94c0-66 23-100 70-100zm9 24c-40 0-46 34-46 75 0 40 6 74 45 74 42 0 51-32 51-76 0-42-9-74-50-73" id="P"/><path d="M135-143c-3-34-86-38-87 0 15 53 115 12 119 90S17 21 10-45l28-5c4 36 97 45 98 0-10-56-113-15-118-90-4-57 82-63 122-42 12 7 21 19 24 35" id="Q"/><path d="M210-169c-67 3-38 105-44 169h-31v-121c0-29-5-50-35-48C34-165 62-65 56 0H25l-1-190h30c1 10-1 24 2 32 10-44 99-50 107 0 11-21 27-35 58-36 85-2 47 119 55 194h-31v-121c0-29-5-49-35-48" id="R"/><path d="M33-261c38 41 65 92 65 168S71 34 33 75H2C39 34 66-17 66-93S39-220 2-261h31" id="S"/><g id="d"><use transform="matrix(0.05,0,0,0.05,0,0)" xlink:href="#M"/><use transform="matrix(0.05,0,0,0.05,5.95,0)" xlink:href="#N"/><use transform="matrix(0.05,0,0,0.05,10.95,0)" xlink:href="#O"/><use transform="matrix(0.05,0,0,0.05,21.9,0)" xlink:href="#P"/><use transform="matrix(0.05,0,0,0.05,31.899999999999995,0)" xlink:href="#Q"/><use transform="matrix(0.05,0,0,0.05,40.9,0)" xlink:href="#E"/><use transform="matrix(0.05,0,0,0.05,50.9,0)" xlink:href="#F"/><use transform="matrix(0.05,0,0,0.05,54.85,0)" xlink:href="#Q"/><use transform="matrix(0.05,0,0,0.05,63.85,0)" xlink:href="#C"/><use transform="matrix(0.05,0,0,0.05,73.85,0)" xlink:href="#D"/><use transform="matrix(0.05,0,0,0.05,83.85,0)" xlink:href="#R"/><use transform="matrix(0.05,0,0,0.05,98.8,0)" xlink:href="#R"/><use transform="matrix(0.05,0,0,0.05,113.75,0)" xlink:href="#E"/><use transform="matrix(0.05,0,0,0.05,123.75,0)" xlink:href="#A"/><use transform="matrix(0.05,0,0,0.05,129.7,0)" xlink:href="#S"/></g><path d="M185-189c-5-48-123-54-124 2 14 75 158 14 163 119 3 78-121 87-175 55-17-10-28-26-33-46l33-7c5 56 141 63 141-1 0-78-155-14-162-118-5-82 145-84 179-34 5 7 8 16 11 25" id="T"/><path d="M179-190L93 31C79 59 56 82 12 73V49c39 6 53-20 64-50L1-190h34L92-34l54-156h33" id="U"/><path d="M143 0L79-87 56-68V0H24v-261h32v163l83-92h37l-77 82L181 0h-38" id="V"/><path d="M24-231v-30h32v30H24zM24 0v-190h32V0H24" id="W"/><g id="e"><use transform="matrix(0.05,0,0,0.05,0,0)" xlink:href="#T"/><use transform="matrix(0.05,0,0,0.05,12,0)" xlink:href="#U"/><use transform="matrix(0.05,0,0,0.05,21,0)" xlink:href="#V"/><use transform="matrix(0.05,0,0,0.05,30,0)" xlink:href="#R"/><use transform="matrix(0.05,0,0,0.05,44.95,0)" xlink:href="#E"/><use transform="matrix(0.05,0,0,0.05,54.95,0)" xlink:href="#F"/><use transform="matrix(0.05,0,0,0.05,58.900000000000006,0)" xlink:href="#P"/><use transform="matrix(0.05,0,0,0.05,68.9,0)" xlink:href="#W"/><use transform="matrix(0.05,0,0,0.05,72.85000000000001,0)" xlink:href="#C"/><use transform="matrix(0.05,0,0,0.05,82.85000000000001,0)" xlink:href="#I"/></g><g id="f"><use transform="matrix(0.05,0,0,0.05,0,0)" xlink:href="#R"/><use transform="matrix(0.05,0,0,0.05,14.950000000000001,0)" xlink:href="#z"/><use transform="matrix(0.05,0,0,0.05,24.950000000000003,0)" xlink:href="#C"/><use transform="matrix(0.05,0,0,0.05,34.95,0)" xlink:href="#D"/><use transform="matrix(0.05,0,0,0.05,44.95,0)" xlink:href="#E"/><use transform="matrix(0.05,0,0,0.05,54.95,0)" xlink:href="#F"/><use transform="matrix(0.05,0,0,0.05,58.900000000000006,0)" xlink:href="#F"/></g><g id="g"><use transform="matrix(0.05,0,0,0.05,0,0)" xlink:href="#K"/><use transform="matrix(0.05,0,0,0.05,10,0)" xlink:href="#E"/><use transform="matrix(0.05,0,0,0.05,20,0)" xlink:href="#y"/><use transform="matrix(0.05,0,0,0.05,30,0)" xlink:href="#z"/><use transform="matrix(0.05,0,0,0.05,40,0)" xlink:href="#C"/><use transform="matrix(0.05,0,0,0.05,50,0)" xlink:href="#P"/><use transform="matrix(0.05,0,0,0.05,60,0)" xlink:href="#F"/><use transform="matrix(0.05,0,0,0.05,63.95,0)" xlink:href="#W"/><use transform="matrix(0.05,0,0,0.05,67.9,0)" xlink:href="#C"/><use transform="matrix(0.05,0,0,0.05,77.9,0)" xlink:href="#I"/></g><g id="h"><use transform="matrix(0.05,0,0,0.05,0,0)" xlink:href="#Q"/><use transform="matrix(0.05,0,0,0.05,9,0)" xlink:href="#U"/><use transform="matrix(0.05,0,0,0.05,18,0)" xlink:href="#N"/><use transform="matrix(0.05,0,0,0.05,23,0)" xlink:href="#L"/><use transform="matrix(0.05,0,0,0.05,33,0)" xlink:href="#Q"/><use transform="matrix(0.05,0,0,0.05,42,0)" xlink:href="#R"/><use transform="matrix(0.05,0,0,0.05,56.95,0)" xlink:href="#R"/><use transform="matrix(0.05,0,0,0.05,71.9,0)" xlink:href="#z"/><use transform="matrix(0.05,0,0,0.05,81.9,0)" xlink:href="#C"/><use transform="matrix(0.05,0,0,0.05,91.9,0)" xlink:href="#D"/><use transform="matrix(0.05,0,0,0.05,101.9,0)" xlink:href="#E"/><use transform="matrix(0.05,0,0,0.05,111.9,0)" xlink:href="#F"/><use transform="matrix(0.05,0,0,0.05,115.85000000000001,0)" xlink:href="#F"/></g><path d="M16-82v-28h88v28H16" id="X"/><path d="M96-169c-40 0-48 33-48 73s9 75 48 75c24 0 41-14 43-38l32 2c-6 37-31 61-74 61-59 0-76-41-82-99-10-93 101-131 147-64 4 7 5 14 7 22l-32 3c-4-21-16-35-41-35" id="Y"/><g id="i"><use transform="matrix(0.05,0,0,0.05,0,0)" xlink:href="#Q"/><use transform="matrix(0.05,0,0,0.05,9,0)" xlink:href="#U"/><use transform="matrix(0.05,0,0,0.05,18,0)" xlink:href="#N"/><use transform="matrix(0.05,0,0,0.05,23,0)" xlink:href="#L"/><use transform="matrix(0.05,0,0,0.05,33,0)" xlink:href="#Q"/><use transform="matrix(0.05,0,0,0.05,42,0)" xlink:href="#R"/><use transform="matrix(0.05,0,0,0.05,56.95,0)" xlink:href="#R"/><use transform="matrix(0.05,0,0,0.05,71.9,0)" xlink:href="#z"/><use transform="matrix(0.05,0,0,0.05,81.9,0)" xlink:href="#C"/><use transform="matrix(0.05,0,0,0.05,91.9,0)" xlink:href="#D"/><use transform="matrix(0.05,0,0,0.05,101.9,0)" xlink:href="#E"/><use transform="matrix(0.05,0,0,0.05,111.9,0)" xlink:href="#F"/><use transform="matrix(0.05,0,0,0.05,115.85000000000001,0)" xlink:href="#F"/><use transform="matrix(0.05,0,0,0.05,119.80000000000001,0)" xlink:href="#X"/><use transform="matrix(0.05,0,0,0.05,125.75,0)" xlink:href="#K"/><use transform="matrix(0.05,0,0,0.05,135.75,0)" xlink:href="#z"/><use transform="matrix(0.05,0,0,0.05,145.75,0)" xlink:href="#Y"/><use transform="matrix(0.05,0,0,0.05,154.75,0)" xlink:href="#V"/><use transform="matrix(0.05,0,0,0.05,163.75,0)" xlink:href="#E"/><use transform="matrix(0.05,0,0,0.05,173.75,0)" xlink:href="#C"/><use transform="matrix(0.05,0,0,0.05,183.75,0)" xlink:href="#P"/></g><path d="M0 4l72-265h28L28 4H0" id="Z"/><path d="M103-251c84 0 111 97 45 133-19 10-37 24-39 52H78c0-63 77-55 77-114 0-30-21-42-52-43-32 0-53 17-56 46l-32-2c7-45 34-72 88-72zM77 0v-35h34V0H77" id="aa"/><path d="M18-150v-26h174v26H18zm0 90v-26h174v26H18" id="ab"/><path d="M27 0v-27h64v-190l-56 39v-29l58-41h29v221h61V0H27" id="ac"/><path d="M101-251c82-7 93 87 43 132L82-64C71-53 59-42 53-27h129V0H18c2-99 128-94 128-182 0-28-16-43-45-43s-46 15-49 41l-32-3c6-41 34-60 81-64" id="ad"/><path d="M126-127c33 6 58 20 58 59 0 88-139 92-164 29-3-8-5-16-6-25l32-3c6 27 21 44 54 44 32 0 52-15 52-46 0-38-36-46-79-43v-28c39 1 72-4 72-42 0-27-17-43-46-43-28 0-47 15-49 41l-32-3c6-42 35-63 81-64 48-1 79 21 79 65 0 36-21 52-52 59" id="ae"/><path d="M155-56V0h-30v-56H8v-25l114-167h33v167h35v25h-35zm-30-156c-27 46-58 90-88 131h88v-131" id="af"/><path d="M54-142c48-35 137-8 131 61C196 18 31 33 14-55l32-4c7 23 22 37 52 37 35-1 51-22 54-58 4-55-73-65-99-34H22l8-134h141v27H59" id="ag"/><g id="j"><use transform="matrix(0.05,0,0,0.05,0,0)" xlink:href="#Z"/><use transform="matrix(0.05,0,0,0.05,5,0)" xlink:href="#R"/><use transform="matrix(0.05,0,0,0.05,19.950000000000003,0)" xlink:href="#z"/><use transform="matrix(0.05,0,0,0.05,29.950000000000003,0)" xlink:href="#C"/><use transform="matrix(0.05,0,0,0.05,39.95,0)" xlink:href="#D"/><use transform="matrix(0.05,0,0,0.05,49.95,0)" xlink:href="#E"/><use transform="matrix(0.05,0,0,0.05,59.95,0)" xlink:href="#F"/><use transform="matrix(0.05,0,0,0.05,63.900000000000006,0)" xlink:href="#F"/><use transform="matrix(0.05,0,0,0.05,67.85000000000001,0)" xlink:href="#L"/><use transform="matrix(0.05,0,0,0.05,77.85000000000001,0)" xlink:href="#H"/><use transform="matrix(0.05,0,0,0.05,87.85000000000001,0)" xlink:href="#H"/><use transform="matrix(0.05,0,0,0.05,97.85000000000001,0)" xlink:href="#I"/><use transform="matrix(0.05,0,0,0.05,107.85000000000001,0)" xlink:href="#z"/><use transform="matrix(0.05,0,0,0.05,117.85000000000001,0)" xlink:href="#J"/><use transform="matrix(0.05,0,0,0.05,126.85000000000001,0)" xlink:href="#E"/><use transform="matrix(0.05,0,0,0.05,136.85000000000002,0)" xlink:href="#aa"/><use transform="matrix(0.05,0,0,0.05,146.85000000000002,0)" xlink:href="#N"/><use transform="matrix(0.05,0,0,0.05,151.85000000000002,0)" xlink:href="#C"/><use transform="matrix(0.05,0,0,0.05,161.85000000000002,0)" xlink:href="#A"/><use transform="matrix(0.05,0,0,0.05,167.8,0)" xlink:href="#ab"/><use transform="matrix(0.05,0,0,0.05,178.3,0)" xlink:href="#ac"/><use transform="matrix(0.05,0,0,0.05,188.3,0)" xlink:href="#ad"/><use transform="matrix(0.05,0,0,0.05,198.3,0)" xlink:href="#ae"/><use transform="matrix(0.05,0,0,0.05,208.3,0)" xlink:href="#af"/><use transform="matrix(0.05,0,0,0.05,218.3,0)" xlink:href="#ag"/></g><path d="M59-47c-2 24 18 29 38 22v24C64 9 27 4 27-40v-127H5v-23h24l9-43h21v43h35v23H59v120" id="ah"/><g id="k"><use transform="matrix(0.05,0,0,0.05,0,0)" xlink:href="#Q"/><use transform="matrix(0.05,0,0,0.05,9,0)" xlink:href="#U"/><use transform="matrix(0.05,0,0,0.05,18,0)" xlink:href="#N"/><use transform="matrix(0.05,0,0,0.05,23,0)" xlink:href="#L"/><use transform="matrix(0.05,0,0,0.05,33,0)" xlink:href="#L"/><use transform="matrix(0.05,0,0,0.05,43,0)" xlink:href="#J"/><use transform="matrix(0.05,0,0,0.05,52,0)" xlink:href="#E"/><use transform="matrix(0.05,0,0,0.05,62,0)" xlink:href="#A"/><use transform="matrix(0.05,0,0,0.05,67.95,0)" xlink:href="#Q"/><use transform="matrix(0.05,0,0,0.05,76.95,0)" xlink:href="#W"/><use transform="matrix(0.05,0,0,0.05,80.9,0)" xlink:href="#V"/><use transform="matrix(0.05,0,0,0.05,89.9,0)" xlink:href="#ah"/></g><path d="M26 75v-336h71v23H56V52h41v23H26" id="ai"/><path d="M39-94c74 12-11 154 75 146v23c-44 4-70-10-70-52C44-23 55-84 6-82v-22c81 4-7-162 84-157h24v23c-82-15-2 131-75 144" id="aj"/><path d="M68-38c1 34 0 65-14 84H32c9-13 17-26 17-46H33v-38h35" id="ak"/><g id="l"><use transform="matrix(0.05,0,0,0.05,0,0)" xlink:href="#ai"/><use transform="matrix(0.05,0,0,0.05,5,0)" xlink:href="#aj"/><use transform="matrix(0.05,0,0,0.05,11,0)" xlink:href="#Q"/><use transform="matrix(0.05,0,0,0.05,20,0)" xlink:href="#U"/><use transform="matrix(0.05,0,0,0.05,29,0)" xlink:href="#V"/><use transform="matrix(0.05,0,0,0.05,38,0)" xlink:href="#R"/><use transform="matrix(0.05,0,0,0.05,52.95,0)" xlink:href="#E"/><use transform="matrix(0.05,0,0,0.05,62.95,0)" xlink:href="#F"/><use transform="matrix(0.05,0,0,0.05,66.9,0)" xlink:href="#P"/><use transform="matrix(0.05,0,0,0.05,76.9,0)" xlink:href="#W"/><use transform="matrix(0.05,0,0,0.05,80.85000000000001,0)" xlink:href="#C"/><use transform="matrix(0.05,0,0,0.05,90.85000000000001,0)" xlink:href="#I"/><use transform="matrix(0.05,0,0,0.05,100.85000000000001,0)" xlink:href="#ak"/></g><path d="M76-40C78 24 84 88 6 75V52C86 64 9-79 80-94c-40-6-34-59-34-106 1-29-11-41-40-38v-23c44-4 70 10 70 52 0 47-12 108 38 105v22c-26 1-39 14-38 42" id="al"/><path d="M3 75V52h41v-290H3v-23h71V75H3" id="am"/><g id="m"><use transform="matrix(0.05,0,0,0.05,0,0)" xlink:href="#J"/><use transform="matrix(0.05,0,0,0.05,9,0)" xlink:href="#z"/><use transform="matrix(0.05,0,0,0.05,19,0)" xlink:href="#F"/><use transform="matrix(0.05,0,0,0.05,22.95,0)" xlink:href="#W"/><use transform="matrix(0.05,0,0,0.05,26.899999999999995,0)" xlink:href="#P"/><use transform="matrix(0.05,0,0,0.05,36.9,0)" xlink:href="#z"/><use transform="matrix(0.05,0,0,0.05,46.9,0)" xlink:href="#ah"/><use transform="matrix(0.05,0,0,0.05,51.900000000000006,0)" xlink:href="#W"/><use transform="matrix(0.05,0,0,0.05,55.85,0)" xlink:href="#L"/><use transform="matrix(0.05,0,0,0.05,65.85,0)" xlink:href="#C"/><use transform="matrix(0.05,0,0,0.05,75.85,0)" xlink:href="#A"/><use transform="matrix(0.05,0,0,0.05,81.8,0)" xlink:href="#E"/><use transform="matrix(0.05,0,0,0.05,91.8,0)" xlink:href="#Q"/><use transform="matrix(0.05,0,0,0.05,100.8,0)" xlink:href="#D"/><use transform="matrix(0.05,0,0,0.05,110.80000000000001,0)" xlink:href="#F"/><use transform="matrix(0.05,0,0,0.05,114.75,0)" xlink:href="#ah"/><use transform="matrix(0.05,0,0,0.05,119.75,0)" xlink:href="#al"/><use transform="matrix(0.05,0,0,0.05,125.75,0)" xlink:href="#am"/></g><path d="M30-248c87 1 191-15 191 75 0 78-77 80-158 76V0H30v-248zm33 125c57 0 124 11 124-50 0-59-68-47-124-48v98" id="an"/><g id="n"><use transform="matrix(0.05,0,0,0.05,0,0)" xlink:href="#an"/><use transform="matrix(0.05,0,0,0.05,12,0)" xlink:href="#G"/><use transform="matrix(0.05,0,0,0.05,26,0)" xlink:href="#T"/><use transform="matrix(0.05,0,0,0.05,38,0)" xlink:href="#w"/><use transform="matrix(0.05,0,0,0.05,46.95,0)" xlink:href="#x"/></g><g id="o"><use transform="matrix(0.05,0,0,0.05,0,0)" xlink:href="#J"/><use transform="matrix(0.05,0,0,0.05,9,0)" xlink:href="#z"/><use transform="matrix(0.05,0,0,0.05,19,0)" xlink:href="#F"/><use transform="matrix(0.05,0,0,0.05,22.95,0)" xlink:href="#W"/><use transform="matrix(0.05,0,0,0.05,26.899999999999995,0)" xlink:href="#P"/><use transform="matrix(0.05,0,0,0.05,36.9,0)" xlink:href="#z"/><use transform="matrix(0.05,0,0,0.05,46.9,0)" xlink:href="#ah"/><use transform="matrix(0.05,0,0,0.05,51.900000000000006,0)" xlink:href="#W"/><use transform="matrix(0.05,0,0,0.05,55.85,0)" xlink:href="#L"/><use transform="matrix(0.05,0,0,0.05,65.85,0)" xlink:href="#C"/><use transform="matrix(0.05,0,0,0.05,75.85,0)" xlink:href="#A"/><use transform="matrix(0.05,0,0,0.05,81.8,0)" xlink:href="#E"/><use transform="matrix(0.05,0,0,0.05,91.8,0)" xlink:href="#Q"/><use transform="matrix(0.05,0,0,0.05,100.8,0)" xlink:href="#D"/><use transform="matrix(0.05,0,0,0.05,110.80000000000001,0)" xlink:href="#F"/><use transform="matrix(0.05,0,0,0.05,114.75,0)" xlink:href="#ah"/></g><g id="p"><use transform="matrix(0.05,0,0,0.05,0,0)" xlink:href="#M"/><use transform="matrix(0.05,0,0,0.05,5.95,0)" xlink:href="#R"/><use transform="matrix(0.05,0,0,0.05,20.900000000000002,0)" xlink:href="#z"/><use transform="matrix(0.05,0,0,0.05,30.900000000000002,0)" xlink:href="#C"/><use transform="matrix(0.05,0,0,0.05,40.900000000000006,0)" xlink:href="#D"/><use transform="matrix(0.05,0,0,0.05,50.900000000000006,0)" xlink:href="#E"/><use transform="matrix(0.05,0,0,0.05,60.900000000000006,0)" xlink:href="#F"/><use transform="matrix(0.05,0,0,0.05,64.85000000000001,0)" xlink:href="#F"/><use transform="matrix(0.05,0,0,0.05,68.80000000000001,0)" xlink:href="#L"/><use transform="matrix(0.05,0,0,0.05,78.80000000000001,0)" xlink:href="#H"/><use transform="matrix(0.05,0,0,0.05,88.80000000000001,0)" xlink:href="#H"/><use transform="matrix(0.05,0,0,0.05,98.80000000000001,0)" xlink:href="#I"/><use transform="matrix(0.05,0,0,0.05,108.80000000000001,0)" xlink:href="#z"/><use transform="matrix(0.05,0,0,0.05,118.80000000000001,0)" xlink:href="#J"/><use transform="matrix(0.05,0,0,0.05,127.80000000000001,0)" xlink:href="#E"/><use transform="matrix(0.05,0,0,0.05,137.8,0)" xlink:href="#W"/><use transform="matrix(0.05,0,0,0.05,141.75,0)" xlink:href="#P"/><use transform="matrix(0.05,0,0,0.05,151.75,0)" xlink:href="#S"/></g><g id="q"><use transform="matrix(0.05,0,0,0.05,0,0)" xlink:href="#R"/><use transform="matrix(0.05,0,0,0.05,14.950000000000001,0)" xlink:href="#z"/><use transform="matrix(0.05,0,0,0.05,24.950000000000003,0)" xlink:href="#C"/><use transform="matrix(0.05,0,0,0.05,34.95,0)" xlink:href="#D"/><use transform="matrix(0.05,0,0,0.05,44.95,0)" xlink:href="#E"/><use transform="matrix(0.05,0,0,0.05,54.95,0)" xlink:href="#F"/><use transform="matrix(0.05,0,0,0.05,58.900000000000006,0)" xlink:href="#F"/></g><g id="r"><use transform="matrix(0.05,0,0,0.05,0,0)" xlink:href="#X"/><use transform="matrix(0.05,0,0,0.05,5.95,0)" xlink:href="#L"/><use transform="matrix(0.05,0,0,0.05,15.949999999999998,0)" xlink:href="#H"/><use transform="matrix(0.05,0,0,0.05,25.950000000000003,0)" xlink:href="#H"/><use transform="matrix(0.05,0,0,0.05,35.95,0)" xlink:href="#I"/><use transform="matrix(0.05,0,0,0.05,45.95,0)" xlink:href="#z"/><use transform="matrix(0.05,0,0,0.05,55.95,0)" xlink:href="#J"/><use transform="matrix(0.05,0,0,0.05,64.95,0)" xlink:href="#E"/><use transform="matrix(0.05,0,0,0.05,74.95,0)" xlink:href="#A"/></g><path d="M197 0v-115H63V0H30v-248h33v105h134v-105h34V0h-34" id="ao"/><g id="s"><use transform="matrix(0.05,0,0,0.05,0,0)" xlink:href="#ao"/><use transform="matrix(0.05,0,0,0.05,12.950000000000001,0)" xlink:href="#E"/><use transform="matrix(0.05,0,0,0.05,22.950000000000003,0)" xlink:href="#C"/><use transform="matrix(0.05,0,0,0.05,32.95,0)" xlink:href="#P"/><use transform="matrix(0.05,0,0,0.05,42.95,0)" xlink:href="#E"/><use transform="matrix(0.05,0,0,0.05,52.95,0)" xlink:href="#F"/><use transform="matrix(0.05,0,0,0.05,56.900000000000006,0)" xlink:href="#Q"/><use transform="matrix(0.05,0,0,0.05,65.9,0)" xlink:href="#E"/></g><g id="t"><use transform="matrix(0.05,0,0,0.05,0,0)" xlink:href="#R"/><use transform="matrix(0.05,0,0,0.05,14.950000000000001,0)" xlink:href="#L"/><use transform="matrix(0.05,0,0,0.05,24.950000000000003,0)" xlink:href="#P"/><use transform="matrix(0.05,0,0,0.05,34.95,0)" xlink:href="#W"/><use transform="matrix(0.05,0,0,0.05,38.900000000000006,0)" xlink:href="#z"/><use transform="matrix(0.05,0,0,0.05,48.900000000000006,0)" xlink:href="#Q"/><use transform="matrix(0.05,0,0,0.05,57.900000000000006,0)" xlink:href="#U"/><use transform="matrix(0.05,0,0,0.05,66.9,0)" xlink:href="#N"/><use transform="matrix(0.05,0,0,0.05,71.9,0)" xlink:href="#L"/><use transform="matrix(0.05,0,0,0.05,81.9,0)" xlink:href="#N"/><use transform="matrix(0.05,0,0,0.05,86.9,0)" xlink:href="#A"/><use transform="matrix(0.05,0,0,0.05,92.85000000000001,0)" xlink:href="#L"/><use transform="matrix(0.05,0,0,0.05,102.85000000000001,0)" xlink:href="#C"/><use transform="matrix(0.05,0,0,0.05,112.85000000000001,0)" xlink:href="#ah"/></g></defs></g></svg>