<svg width="24" height="24" xmlns="http://www.w3.org/2000/svg"><path fill="none" d="M-1-1h582v402H-1z"/><path fill="#ba3a26" d="M11.499 0C5.17 0 .012 5.148 0 11.477a11.426 11.426 0 003.352 8.139A11.428 11.428 0 0011.478 23h.022c6.328 0 11.487-5.149 11.5-11.479C23.012 5.181 17.863.012 11.499 0zm.001 22.5zm4.588-7.102a.501.501 0 01-.709.707l-3.882-3.898-3.896 3.882a.498.498 0 01-.707 0 .5.5 0 01.001-.707l3.897-3.882L6.91 7.602a.498.498 0 01.002-.706.497.497 0 01.707.001l3.881 3.897 3.896-3.881a.5.5 0 11.706.708l-3.896 3.882 3.882 3.895z"/></svg>