<svg width="24" height="24" xmlns="http://www.w3.org/2000/svg">

 <g>
  <title>background</title>
  <rect fill="none" id="canvas_background" height="402" width="582" y="-1" x="-1"/>
 </g>
 <g>
  <title>Layer 1</title>
  <path fill="#038906" id="svg_1" d="m12,0c-6.617,0 -12,5.384 -12,12s5.383,12 12,12c6.616,0 12,-5.384 12,-12s-5.384,-12 -12,-12zm5.341,8.866l-7.5,7c-0.096,0.089 -0.219,0.134 -0.341,0.134c-0.129,0 -0.256,-0.049 -0.354,-0.146l-2.5,-2.5c-0.195,-0.195 -0.195,-0.512 0,-0.707s0.512,-0.195 0.707,0l2.158,2.158l7.147,-6.67c0.201,-0.188 0.518,-0.179 0.707,0.023s0.178,0.519 -0.024,0.708z"/>
 </g>
</svg>