<svg width="24" height="24" xmlns="http://www.w3.org/2000/svg">

 <g>
  <title>background</title>
  <rect fill="none" id="canvas_background" height="402" width="582" y="-1" x="-1"/>
 </g>
 <g>
  <title>Layer 1</title>
  <path fill="#0067c5" id="svg_1" d="m23.5,0l-23,0c-0.275,0 -0.5,0.224 -0.5,0.5l0,23c0,0.276 0.225,0.5 0.5,0.5l23,0c0.275,0 0.5,-0.224 0.5,-0.5l0,-23c0,-0.276 -0.225,-0.5 -0.5,-0.5zm-6.158,8.866l-7.5,7c-0.096,0.089 -0.219,0.134 -0.34,0.134c-0.129,0 -0.256,-0.049 -0.354,-0.146l-2.5,-2.5c-0.195,-0.195 -0.195,-0.512 0,-0.707s0.512,-0.195 0.707,0l2.158,2.158l7.146,-6.67c0.201,-0.188 0.52,-0.179 0.707,0.023s0.179,0.519 -0.024,0.708z"/>
 </g>
</svg>