<svg width="24" height="24" xmlns="http://www.w3.org/2000/svg" preserveAspectRatio="xMidYMid meet">

 <g>
  <title>background</title>
  <rect fill="none" id="canvas_background" height="402" width="582" y="-1" x="-1"/>
 </g>
 <g>
  <title>Layer 1</title>
  <path id="svg_1" d="m22.875,0.168c-0.094,-0.095 -0.221,-0.147 -0.354,-0.147l-22.021,-0.021l0,0c-0.133,0 -0.26,0.053 -0.354,0.147c-0.093,0.093 -0.146,0.22 -0.146,0.353l0,22c0,0.276 0.225,0.5 0.5,0.5l22,0c0.275,0 0.5,-0.224 0.5,-0.5l0.021,-21.979c0,-0.132 -0.052,-0.259 -0.146,-0.353zm-6.787,15.23c0.195,0.195 0.195,0.512 -0.002,0.707c-0.098,0.098 -0.225,0.146 -0.354,0.146c-0.127,0 -0.256,-0.049 -0.354,-0.146l-3.881,-3.898l-3.896,3.882c-0.098,0.098 -0.225,0.146 -0.354,0.146c-0.127,0 -0.256,-0.049 -0.354,-0.146c-0.195,-0.196 -0.195,-0.513 0.002,-0.707l3.897,-3.882l-3.882,-3.898c-0.195,-0.196 -0.193,-0.512 0.002,-0.706c0.195,-0.197 0.512,-0.196 0.707,0.001l3.881,3.897l3.896,-3.881c0.195,-0.195 0.514,-0.195 0.707,0.001c0.195,0.195 0.195,0.512 0,0.707l-3.896,3.882l3.881,3.895z" fill="#c30000"/>
 </g>
</svg>