<svg width="24" height="24" xmlns="http://www.w3.org/2000/svg">

 <g>
  <title>background</title>
  <rect fill="none" id="canvas_background" height="402" width="582" y="-1" x="-1"/>
 </g>
 <g>
  <title>Layer 1</title>
  <path fill="#ba3a26" id="svg_1" d="m11.499,0c-6.329,0 -11.487,5.148 -11.499,11.477c-0.006,3.072 1.184,5.962 3.352,8.139c2.168,2.176 5.054,3.378 8.126,3.384l0.022,0c6.328,0 11.487,-5.149 11.5,-11.479c0.012,-6.34 -5.137,-11.509 -11.501,-11.521zm0.001,22.5l0,0l0,0l0,0zm4.588,-7.102c0.194,0.195 0.193,0.512 -0.002,0.707c-0.098,0.098 -0.225,0.146 -0.353,0.146c-0.127,0 -0.256,-0.049 -0.354,-0.146l-3.882,-3.898l-3.896,3.882c-0.098,0.098 -0.226,0.146 -0.354,0.146c-0.128,0 -0.255,-0.049 -0.353,-0.146c-0.195,-0.196 -0.195,-0.513 0.001,-0.707l3.897,-3.882l-3.882,-3.898c-0.195,-0.196 -0.194,-0.512 0.002,-0.706c0.195,-0.197 0.512,-0.196 0.707,0.001l3.881,3.897l3.896,-3.881c0.195,-0.195 0.513,-0.195 0.707,0.001c0.195,0.195 0.195,0.512 -0.001,0.707l-3.896,3.882l3.882,3.895z"/>
 </g>
</svg>