<svg width="24" height="24" xmlns="http://www.w3.org/2000/svg">

 <g>
  <title>background</title>
  <rect fill="none" id="canvas_background" height="402" width="582" y="-1" x="-1"/>
 </g>
 <g>
  <title>Layer 1</title>
  <path fill="#005b82" id="svg_1" d="m11.5,1c-6.342,0 -11.5,5.158 -11.5,11.5s5.158,11.5 11.5,11.5c6.341,0 11.5,-5.158 11.5,-11.5s-5.159,-11.5 -11.5,-11.5zm-0.5,5c0.551,0 1,0.448 1,1c0,0.553 -0.449,1 -1,1c-0.553,0 -1,-0.447 -1,-1c0,-0.552 0.447,-1 1,-1zm3.5,14l-6,0c-0.276,0 -0.5,-0.224 -0.5,-0.5s0.224,-0.5 0.5,-0.5l2.5,0l0,-8l-1.5,0c-0.276,0 -0.5,-0.224 -0.5,-0.5s0.224,-0.5 0.5,-0.5l2,0c0.275,0 0.5,0.224 0.5,0.5l0,8.5l2.5,0c0.275,0 0.5,0.224 0.5,0.5s-0.225,0.5 -0.5,0.5z"/>
 </g>
</svg>