<svg width="24" height="24" xmlns="http://www.w3.org/2000/svg">
 <g>
  <title>background</title>
  <rect x="-1" y="-1" width="3.333325" height="3.333325" id="canvas_background" fill="none"/>
 </g>

 <g>
  <title>Layer 1</title>
  <ellipse ry="8.727354" rx="5.331986" id="svg_2" cy="13.106639" cx="11.597586" stroke-opacity="null" stroke-width="null" stroke="null" fill="#000000"/>
  <path d="m11.696,0.996l-0.205,0.002c-3.08,0.054 -5.979,1.299 -8.162,3.506c-2.199,2.223 -3.38,5.133 -3.327,8.195c0.11,6.337 5.075,11.301 11.303,11.301l0.203,-0.002c6.446,-0.111 11.601,-5.361 11.49,-11.7c-0.11,-6.337 -5.075,-11.302 -11.302,-11.302zm-0.696,6c0,-0.276 0.224,-0.5 0.5,-0.5c0.275,0 0.5,0.224 0.5,0.5l0,7c0,0.276 -0.225,0.5 -0.5,0.5c-0.276,0 -0.5,-0.224 -0.5,-0.5l0,-7zm0.518,11.5c-0.006,0 -0.012,0 -0.018,0c-0.545,0 -0.991,-0.436 -1,-0.982c-0.01,-0.552 0.43,-1.008 0.982,-1.017c0.006,0 0.012,-0.001 0.018,-0.001c0.545,0 0.99,0.437 1,0.983c0.01,0.552 -0.431,1.007 -0.982,1.017z" id="svg_1" fill="#ff9100"/>
 </g>
</svg>