<svg width="24" height="24" xmlns="http://www.w3.org/2000/svg"><path fill="none" d="M-1-1h3.333v3.333H-1z"/><g><ellipse ry="8.727" rx="5.332" cy="13.107" cx="11.598" stroke-opacity="null" stroke-width="null" stroke="null"/><path d="M11.696.996l-.205.002a11.715 11.715 0 00-8.162 3.506C1.13 6.727-.051 9.637.002 12.699.112 19.036 5.077 24 11.305 24l.203-.002c6.446-.111 11.601-5.361 11.49-11.7C22.888 5.961 17.923.996 11.696.996zm-.696 6a.5.5 0 011 0v7a.5.5 0 01-1 0v-7zm.518 11.5H11.5a1 1 0 01-.018-1.999l.018-.001a1 1 0 01.018 2z" fill="#ff9100"/></g></svg>