<svg xmlns="http://www.w3.org/2000/svg" xmlns:xlink="http://www.w3.org/1999/xlink" xmlns:lucid="lucid" width="1247.71" height="658.99"><g transform="translate(-12 -12)" lucid:page-tab-id="0_0"><path d="M0 0h1870.4v1323.2H0z" fill="#fff"/><path d="M310.7 561h267.26v60H310.7z" fill="none"/><use xlink:href="#a" transform="matrix(1,0,0,1,310.7023796176966,560.9900741062717) translate(7.199999999999989 33.6)"/><use xlink:href="#b" transform="matrix(1,0,0,1,310.7023796176966,560.9900741062717) translate(105.05 33.6)"/><use xlink:href="#c" transform="matrix(1,0,0,1,310.7023796176966,560.9900741062717) translate(172.9 33.6)"/><path d="M677.96 32h160v58.05h-160z" stroke="#000" stroke-width="2" fill="#fff"/><use xlink:href="#d" transform="matrix(1,0,0,1,682.9600426536272,37) translate(19.625 26.65)"/><path d="M632.8 392.6h250.32v120H632.8z" stroke="#000" stroke-width="2" fill="#fff"/><use xlink:href="#e" transform="matrix(1,0,0,1,637.8020129935537,397.6032426498256) translate(23.625 59.0875)"/><path d="M32 392.6h160v120H32z" stroke="#000" stroke-width="2" fill="#fff"/><use xlink:href="#f" transform="matrix(1,0,0,1,37,397.6032426498256) translate(40.5 59.0875)"/><path d="M793.33 111.45h429.3v74.8h-429.3z" stroke="#000" stroke-opacity="0" stroke-width="2" fill="#fff" fill-opacity="0"/><use xlink:href="#g" transform="matrix(1,0,0,1,798.3334943427385,116.44961055660545) translate(0 14.4)"/><use xlink:href="#h" transform="matrix(1,0,0,1,798.3334943427385,116.44961055660545) translate(44.95 14.4)"/><use xlink:href="#i" transform="matrix(1,0,0,1,798.3334943427385,116.44961055660545) translate(0 36)"/><path d="M301.3 111.45h428.13v60H301.3z" stroke="#000" stroke-opacity="0" stroke-width="2" fill="#fff" fill-opacity="0"/><use xlink:href="#j" transform="matrix(1,0,0,1,306.29834741417324,116.44961055660545) translate(15.350000000000023 14.4)"/><use xlink:href="#h" transform="matrix(1,0,0,1,306.29834741417324,116.44961055660545) translate(59.25000000000003 14.4)"/><use xlink:href="#k" transform="matrix(1,0,0,1,306.29834741417324,116.44961055660545) translate(66.40000000000003 36)"/><path d="M895.08 639c0 6.62-19.76 12-44.12 12-24.37 0-44.12-5.38-44.12-12v-96c0-6.64 19.75-12 44.12-12 24.36 0 44.12 5.36 44.12 12z" stroke="#000" stroke-width="2" fill="#fff"/><path d="M895.08 543c0 6.62-19.76 12-44.12 12-24.37 0-44.12-5.38-44.12-12" stroke="#000" stroke-width="2" fill="none"/><use xlink:href="#l" transform="matrix(1,0,0,1,811.8354892215214,559.9900741062717) translate(8.074999999999996 35.8)"/><use xlink:href="#m" transform="matrix(1,0,0,1,811.8354892215214,559.9900741062717) translate(-0.9500000000000028 57.4)"/><path d="M787.33 591h-29.37v-58.9" stroke="#000" stroke-width="2" fill="none"/><path d="M802.6 591l-14.27 4.63v-9.28zM757.96 516.84l4.64 14.27h-9.28z" stroke="#000" stroke-width="2"/><path d="M232.28 393.75h353.4v29.06H232.3z" stroke="#000" stroke-opacity="0" stroke-width="2" fill="#fff" fill-opacity="0"/><use xlink:href="#n" transform="matrix(1,0,0,1,237.28180027479334,398.7507803186358) translate(20.075000000000017 15.65)"/><use xlink:href="#o" transform="matrix(1,0,0,1,237.28180027479334,398.7507803186358) translate(77.02500000000002 15.65)"/><path d="M630.8 452.6H211.5" stroke="#000" stroke-width="2" fill="none"/><path d="M631.8 453.6h-1.02v-2h1.02z"/><path d="M196.24 452.6l14.26-4.63v9.27z" stroke="#000" stroke-width="2"/><path d="M32 285.2h160v55.74H32z" stroke="#000" stroke-width="2" fill="#fff"/><use xlink:href="#p" transform="matrix(1,0,0,1,37,290.19040504419377) translate(51.5 25.9)"/><path d="M112 390.6v-30.16" stroke="#000" stroke-width="2" fill="none"/><path d="M113 391.6h-2v-1.02h2z"/><path d="M112 345.18l4.64 14.26h-9.28z" stroke="#000" stroke-width="2"/><path d="M583.6 570.86h148.73v40.26H583.6z" stroke="#000" stroke-width="2" fill="#fff"/><path d="M626.12 571.86v19.22h-.03v19.22M626.12 571.9v-1.04M626.1 610.28v1.02M647.37 571.86v19.22h-.03v19.22M647.37 571.9v-1.04M647.34 610.28v1.02M668.62 571.86v19.22h-.04v19.22M668.62 571.9v-1.04M668.58 610.28v1.02M689.87 571.86v19.22h-.04v19.22M689.87 571.9v-1.04M689.83 610.28v1.02M711.12 571.86v19.22h-.04v19.22M711.12 571.9v-1.04M711.08 610.28v1.02M604.88 571.86v19.22h-.04v19.22M604.88 571.9v-1.04M604.84 610.28v1.02M657.96 568.86V532.1" stroke="#000" stroke-width="2" fill="none"/><path d="M658.96 569.86h-2v-1.03h2z"/><path d="M657.96 516.84l4.64 14.27h-9.28z" stroke="#000" stroke-width="2"/><path d="M630.8 423.95H211.5" stroke="#000" stroke-width="2" fill="none"/><path d="M631.8 424.95h-1.02v-2h1.02z"/><path d="M196.24 423.95l14.26-4.64v9.28z" stroke="#000" stroke-width="2"/><path d="M630.8 484.24H211.5" stroke="#000" stroke-width="2" fill="none"/><path d="M631.8 485.24h-1.02v-2h1.02z"/><path d="M196.24 484.24l14.26-4.64v9.27z" stroke="#000" stroke-width="2"/><path d="M240.3 426.9h337.36v29.04H240.3z" stroke="#000" stroke-opacity="0" stroke-width="2" fill="#fff" fill-opacity="0"/><use xlink:href="#g" transform="matrix(1,0,0,1,245.3128266572478,431.8871992019654) translate(11.575000000000017 15.65)"/><use xlink:href="#q" transform="matrix(1,0,0,1,245.3128266572478,431.8871992019654) translate(56.52500000000002 15.65)"/><path d="M232.28 458.78h353.4v29.05H232.3z" stroke="#000" stroke-opacity="0" stroke-width="2" fill="#fff" fill-opacity="0"/><use xlink:href="#r" transform="matrix(1,0,0,1,237.28180027479334,463.7776670272687) translate(7.975000000000023 15.65)"/><use xlink:href="#q" transform="matrix(1,0,0,1,237.28180027479334,463.7776670272687) translate(76.12500000000003 15.65)"/><path d="M677.96 200.34h160v84.85h-160z" stroke="#000" stroke-width="2" fill="#fff"/><use xlink:href="#s" transform="matrix(1,0,0,1,682.9600426536272,205.33524931429702) translate(15.099999999999994 30.80625)"/><use xlink:href="#t" transform="matrix(1,0,0,1,682.9600426536272,205.33524931429702) translate(47.075 52.40625)"/><path d="M738.9 92.05v53.14h.2v35.63" stroke="#000" stroke-width="2" fill="none"/><path d="M739.9 92.07h-2v-1.02h2z"/><path d="M739.1 196.1l-4.63-14.27h9.27z" stroke="#000" stroke-width="2"/><path d="M779.1 92.05v53.14h-.2v35.63" stroke="#000" stroke-width="2" fill="none"/><path d="M780.1 92.07h-2v-1.02h2z"/><path d="M778.9 196.1l-4.64-14.27h9.27z" stroke="#000" stroke-width="2"/><path d="M789.33 317.24h429.3v74.8h-429.3z" stroke="#000" stroke-opacity="0" stroke-width="2" fill="#fff" fill-opacity="0"/><use xlink:href="#g" transform="matrix(1,0,0,1,794.3312825246574,322.240704795174) translate(0 14.4)"/><use xlink:href="#u" transform="matrix(1,0,0,1,794.3312825246574,322.240704795174) translate(44.95 14.4)"/><use xlink:href="#i" transform="matrix(1,0,0,1,794.3312825246574,322.240704795174) translate(0 36)"/><path d="M297.3 317.24h428.13v74.8H297.3z" stroke="#000" stroke-opacity="0" stroke-width="2" fill="#fff" fill-opacity="0"/><use xlink:href="#j" transform="matrix(1,0,0,1,302.29613559609203,322.240704795174) translate(131.35000000000002 14.4)"/><use xlink:href="#u" transform="matrix(1,0,0,1,302.29613559609203,322.240704795174) translate(175.25000000000003 14.4)"/><use xlink:href="#k" transform="matrix(1,0,0,1,302.29613559609203,322.240704795174) translate(66.40000000000003 36)"/><path d="M737.94 287.2v85.9" stroke="#000" stroke-width="2" fill="none"/><path d="M738.94 287.22h-2v-1.03h2z"/><path d="M737.94 388.37l-4.63-14.27h9.28z" stroke="#000" stroke-width="2"/><path d="M777.2 287.2v85.9" stroke="#000" stroke-width="2" fill="none"/><path d="M778.2 287.22h-2v-1.03h2z"/><path d="M777.2 388.37l-4.64-14.27h9.27z" stroke="#000" stroke-width="2"/><path d="M1133.82 261.45c-10.32 0-18.68-8.37-18.68-18.7 0-8.24 5.06-15.2 12.9-17.76-.45-24.28 30.7-28.95 43.15-19.6 6.22-14.02 37.37-9.35 37.37 4.66 18.68-4.67 37.37 14.02 24.9 37.37 12.47 18.7 0 42.05-24.9 32.7-6.23 12.15-31.15 12.15-37.38 0-12.46 9.35-37.38 4.68-37.38-18.68z" stroke="#000" stroke-width="2" fill="#fff"/><use xlink:href="#v" transform="matrix(1,0,0,1,1120.1365491873662,201.04753900230781) translate(18.549999999999997 45.9)"/><use xlink:href="#w" transform="matrix(1,0,0,1,1120.1365491873662,201.04753900230781) translate(70.5 45.9)"/><path d="M839.96 242.76h255.68" stroke="#000" stroke-width="2" fill="none"/><path d="M840 243.76h-1.04v-2H840z"/><path d="M1110.9 242.76l-14.27 4.64v-9.27z" stroke="#000" stroke-width="2"/><use xlink:href="#x" transform="matrix(1,0,0,1,874.5940921267105,217.16282717924545) translate(0 14.4)"/><use xlink:href="#y" transform="matrix(1,0,0,1,874.5940921267105,217.16282717924545) translate(34 14.4)"/><use xlink:href="#z" transform="matrix(1,0,0,1,874.5940921267105,217.16282717924545) translate(150.9 14.4)"/><path d="M885.12 427.37h304.96V308.7" stroke="#000" stroke-width="2" fill="none"/><path d="M885.14 428.37h-1.02v-2h1.02z"/><path d="M1190.08 293.45l4.63 14.26h-9.26z" stroke="#000" stroke-width="2"/><g><use xlink:href="#A" transform="matrix(1,0,0,1,914.499639399391,401.7655510527276) translate(0 14.4)"/><use xlink:href="#y" transform="matrix(1,0,0,1,914.499639399391,401.7655510527276) translate(69.8 14.4)"/><use xlink:href="#z" transform="matrix(1,0,0,1,914.499639399391,401.7655510527276) translate(186.7 14.4)"/></g><path d="M112 283.2V61h546.46" stroke="#000" stroke-width="2" fill="none"/><path d="M113 284.2h-2v-1.04h2z"/><path d="M673.72 61.02l-14.26 4.64V56.4z" stroke="#000" stroke-width="2"/><g><use xlink:href="#B" transform="matrix(1,0,0,1,120.00000000000003,218.5434983149969) translate(0 14.4)"/><use xlink:href="#C" transform="matrix(1,0,0,1,120.00000000000003,218.5434983149969) translate(124.9 14.4)"/><use xlink:href="#D" transform="matrix(1,0,0,1,120.00000000000003,218.5434983149969) translate(183.8 14.4)"/><use xlink:href="#E" transform="matrix(1,0,0,1,120.00000000000003,218.5434983149969) translate(208.8 14.4)"/><use xlink:href="#F" transform="matrix(1,0,0,1,120.00000000000003,218.5434983149969) translate(314.4 14.4)"/><use xlink:href="#G" transform="matrix(1,0,0,1,120.00000000000003,218.5434983149969) translate(323.34999999999997 14.4)"/></g><g><use xlink:href="#H" transform="matrix(1,0,0,1,154.12150701329298,35.42318395338995) translate(0 14.4)"/><use xlink:href="#I" transform="matrix(1,0,0,1,154.12150701329298,35.42318395338995) translate(76.85000000000001 14.4)"/></g><path d="M1014.7 551.12h207.93v60H1014.7z" stroke="#000" stroke-width="2" fill="#fff"/><g><use xlink:href="#J" transform="matrix(1,0,0,1,1019.6972570449311,556.120083919924) translate(19.650000000000006 30.025)"/></g><path d="M885.12 472.77h233.54v58.85" stroke="#000" stroke-width="2" fill="none"/><path d="M885.14 473.77h-1.02v-2h1.02z"/><path d="M1118.66 546.88l-4.63-14.26h9.27z" stroke="#000" stroke-width="2"/><g><use xlink:href="#A" transform="matrix(1,0,0,1,943.32711695579,447.1718816167932) translate(0 14.4)"/><use xlink:href="#K" transform="matrix(1,0,0,1,943.32711695579,447.1718816167932) translate(69.8 14.4)"/></g><defs><path d="M185-189c-5-48-123-54-124 2 14 75 158 14 163 119 3 78-121 87-175 55-17-10-28-26-33-46l33-7c5 56 141 63 141-1 0-78-155-14-162-118-5-82 145-84 179-34 5 7 8 16 11 25" id="L"/><path d="M179-190L93 31C79 59 56 82 12 73V49c39 6 53-20 64-50L1-190h34L92-34l54-156h33" id="M"/><path d="M143 0L79-87 56-68V0H24v-261h32v163l83-92h37l-77 82L181 0h-38" id="N"/><path d="M210-169c-67 3-38 105-44 169h-31v-121c0-29-5-50-35-48C34-165 62-65 56 0H25l-1-190h30c1 10-1 24 2 32 10-44 99-50 107 0 11-21 27-35 58-36 85-2 47 119 55 194h-31v-121c0-29-5-49-35-48" id="O"/><path d="M100-194c63 0 86 42 84 106H49c0 40 14 67 53 68 26 1 43-12 49-29l28 8c-11 28-37 45-77 45C44 4 14-33 15-96c1-61 26-98 85-98zm52 81c6-60-76-77-97-28-3 7-6 17-6 28h103" id="P"/><path d="M24 0v-261h32V0H24" id="Q"/><path d="M85-194c31 0 48 13 60 33l-1-100h32l1 261h-30c-2-10 0-23-3-31C134-8 116 4 85 4 32 4 16-35 15-94c0-66 23-100 70-100zm9 24c-40 0-46 34-46 75 0 40 6 74 45 74 42 0 51-32 51-76 0-42-9-74-50-73" id="R"/><path d="M24-231v-30h32v30H24zM24 0v-190h32V0H24" id="S"/><path d="M117-194c89-4 53 116 60 194h-32v-121c0-31-8-49-39-48C34-167 62-67 57 0H25l-1-190h30c1 10-1 24 2 32 11-22 29-35 61-36" id="T"/><path d="M177-190C167-65 218 103 67 71c-23-6-38-20-44-43l32-5c15 47 100 32 89-28v-30C133-14 115 1 83 1 29 1 15-40 15-95c0-56 16-97 71-98 29-1 48 16 59 35 1-10 0-23 2-32h30zM94-22c36 0 50-32 50-73 0-42-14-75-50-75-39 0-46 34-46 75s6 73 46 73" id="U"/><g id="a"><use transform="matrix(0.05,0,0,0.05,0,0)" xlink:href="#L"/><use transform="matrix(0.05,0,0,0.05,12,0)" xlink:href="#M"/><use transform="matrix(0.05,0,0,0.05,21,0)" xlink:href="#N"/><use transform="matrix(0.05,0,0,0.05,30,0)" xlink:href="#O"/><use transform="matrix(0.05,0,0,0.05,44.95,0)" xlink:href="#P"/><use transform="matrix(0.05,0,0,0.05,54.95,0)" xlink:href="#Q"/><use transform="matrix(0.05,0,0,0.05,58.900000000000006,0)" xlink:href="#R"/><use transform="matrix(0.05,0,0,0.05,68.9,0)" xlink:href="#S"/><use transform="matrix(0.05,0,0,0.05,72.85000000000001,0)" xlink:href="#T"/><use transform="matrix(0.05,0,0,0.05,82.85000000000001,0)" xlink:href="#U"/></g><path d="M141-36C126-15 110 5 73 4 37 3 15-17 15-53c-1-64 63-63 125-63 3-35-9-54-41-54-24 1-41 7-42 31l-33-3c5-37 33-52 76-52 45 0 72 20 72 64v82c-1 20 7 32 28 27v20c-31 9-61-2-59-35zM48-53c0 20 12 33 32 33 41-3 63-29 60-74-43 2-92-5-92 41" id="V"/><path d="M84 4C-5 8 30-112 23-190h32v120c0 31 7 50 39 49 72-2 45-101 50-169h31l1 190h-30c-1-10 1-25-2-33-11 22-28 36-60 37" id="W"/><g id="b"><use transform="matrix(0.05,0,0,0.05,0,0)" xlink:href="#O"/><use transform="matrix(0.05,0,0,0.05,14.950000000000001,0)" xlink:href="#V"/><use transform="matrix(0.05,0,0,0.05,24.950000000000003,0)" xlink:href="#T"/><use transform="matrix(0.05,0,0,0.05,34.95,0)" xlink:href="#W"/><use transform="matrix(0.05,0,0,0.05,44.95,0)" xlink:href="#P"/><use transform="matrix(0.05,0,0,0.05,54.95,0)" xlink:href="#Q"/><use transform="matrix(0.05,0,0,0.05,58.900000000000006,0)" xlink:href="#Q"/></g><path d="M115-194c53 0 69 39 70 98 0 66-23 100-70 100C84 3 66-7 56-30L54 0H23l1-261h32v101c10-23 28-34 59-34zm-8 174c40 0 45-34 45-75 0-40-5-75-45-74-42 0-51 32-51 76 0 43 10 73 51 73" id="X"/><path d="M106-169C34-169 62-67 57 0H25v-261h32l-1 103c12-21 28-36 61-36 89 0 53 116 60 194h-32v-121c2-32-8-49-39-48" id="Y"/><g id="c"><use transform="matrix(0.05,0,0,0.05,0,0)" xlink:href="#X"/><use transform="matrix(0.05,0,0,0.05,10,0)" xlink:href="#P"/><use transform="matrix(0.05,0,0,0.05,20,0)" xlink:href="#Y"/><use transform="matrix(0.05,0,0,0.05,30,0)" xlink:href="#V"/><use transform="matrix(0.05,0,0,0.05,40,0)" xlink:href="#T"/><use transform="matrix(0.05,0,0,0.05,50,0)" xlink:href="#R"/><use transform="matrix(0.05,0,0,0.05,60,0)" xlink:href="#Q"/><use transform="matrix(0.05,0,0,0.05,63.95,0)" xlink:href="#S"/><use transform="matrix(0.05,0,0,0.05,67.9,0)" xlink:href="#T"/><use transform="matrix(0.05,0,0,0.05,77.9,0)" xlink:href="#U"/></g><path d="M114-163C36-179 61-72 57 0H25l-1-190h30c1 12-1 29 2 39 6-27 23-49 58-41v29" id="Z"/><path d="M100-194c62-1 85 37 85 99 1 63-27 99-86 99S16-35 15-95c0-66 28-99 85-99zM99-20c44 1 53-31 53-75 0-43-8-75-51-75s-53 32-53 75 10 74 51 75" id="aa"/><path d="M206 0h-36l-40-164L89 0H53L-1-190h32L70-26l43-164h34l41 164 42-164h31" id="ab"/><path d="M135-143c-3-34-86-38-87 0 15 53 115 12 119 90S17 21 10-45l28-5c4 36 97 45 98 0-10-56-113-15-118-90-4-57 82-63 122-42 12 7 21 19 24 35" id="ac"/><path d="M0 4l72-265h28L28 4H0" id="ad"/><path d="M96-169c-40 0-48 33-48 73s9 75 48 75c24 0 41-14 43-38l32 2c-6 37-31 61-74 61-59 0-76-41-82-99-10-93 101-131 147-64 4 7 5 14 7 22l-32 3c-4-21-16-35-41-35" id="ae"/><path d="M59-47c-2 24 18 29 38 22v24C64 9 27 4 27-40v-127H5v-23h24l9-43h21v43h35v23H59v120" id="af"/><g id="d"><use transform="matrix(0.05,0,0,0.05,0,0)" xlink:href="#X"/><use transform="matrix(0.05,0,0,0.05,10,0)" xlink:href="#Z"/><use transform="matrix(0.05,0,0,0.05,15.949999999999998,0)" xlink:href="#aa"/><use transform="matrix(0.05,0,0,0.05,25.950000000000003,0)" xlink:href="#ab"/><use transform="matrix(0.05,0,0,0.05,38.9,0)" xlink:href="#ac"/><use transform="matrix(0.05,0,0,0.05,47.9,0)" xlink:href="#P"/><use transform="matrix(0.05,0,0,0.05,57.900000000000006,0)" xlink:href="#Z"/><use transform="matrix(0.05,0,0,0.05,63.85,0)" xlink:href="#ad"/><use transform="matrix(0.05,0,0,0.05,68.85,0)" xlink:href="#ae"/><use transform="matrix(0.05,0,0,0.05,77.85,0)" xlink:href="#Q"/><use transform="matrix(0.05,0,0,0.05,81.8,0)" xlink:href="#S"/><use transform="matrix(0.05,0,0,0.05,85.75,0)" xlink:href="#P"/><use transform="matrix(0.05,0,0,0.05,95.75,0)" xlink:href="#T"/><use transform="matrix(0.05,0,0,0.05,105.75,0)" xlink:href="#af"/></g><path d="M101-234c-31-9-42 10-38 44h38v23H63V0H32v-167H5v-23h27c-7-52 17-82 69-68v24" id="ag"/><path d="M16-82v-28h88v28H16" id="ah"/><g id="e"><use transform="matrix(0.05,0,0,0.05,0,0)" xlink:href="#ac"/><use transform="matrix(0.05,0,0,0.05,9,0)" xlink:href="#M"/><use transform="matrix(0.05,0,0,0.05,18,0)" xlink:href="#ag"/><use transform="matrix(0.05,0,0,0.05,23,0)" xlink:href="#aa"/><use transform="matrix(0.05,0,0,0.05,33,0)" xlink:href="#ac"/><use transform="matrix(0.05,0,0,0.05,42,0)" xlink:href="#O"/><use transform="matrix(0.05,0,0,0.05,56.95,0)" xlink:href="#O"/><use transform="matrix(0.05,0,0,0.05,71.9,0)" xlink:href="#V"/><use transform="matrix(0.05,0,0,0.05,81.9,0)" xlink:href="#T"/><use transform="matrix(0.05,0,0,0.05,91.9,0)" xlink:href="#W"/><use transform="matrix(0.05,0,0,0.05,101.9,0)" xlink:href="#P"/><use transform="matrix(0.05,0,0,0.05,111.9,0)" xlink:href="#Q"/><use transform="matrix(0.05,0,0,0.05,115.85000000000001,0)" xlink:href="#Q"/><use transform="matrix(0.05,0,0,0.05,119.80000000000001,0)" xlink:href="#ah"/><use transform="matrix(0.05,0,0,0.05,125.75,0)" xlink:href="#X"/><use transform="matrix(0.05,0,0,0.05,135.75,0)" xlink:href="#V"/><use transform="matrix(0.05,0,0,0.05,145.75,0)" xlink:href="#ae"/><use transform="matrix(0.05,0,0,0.05,154.75,0)" xlink:href="#N"/><use transform="matrix(0.05,0,0,0.05,163.75,0)" xlink:href="#P"/><use transform="matrix(0.05,0,0,0.05,173.75,0)" xlink:href="#T"/><use transform="matrix(0.05,0,0,0.05,183.75,0)" xlink:href="#R"/></g><path d="M115-194c55 1 70 41 70 98S169 2 115 4C84 4 66-9 55-30l1 105H24l-1-265h31l2 30c10-21 28-34 59-34zm-8 174c40 0 45-34 45-75s-6-73-45-74c-42 0-51 32-51 76 0 43 10 73 51 73" id="ai"/><path d="M108 0H70L1-190h34L89-25l56-165h34" id="aj"/><g id="f"><use transform="matrix(0.05,0,0,0.05,0,0)" xlink:href="#aa"/><use transform="matrix(0.05,0,0,0.05,10,0)" xlink:href="#ai"/><use transform="matrix(0.05,0,0,0.05,20,0)" xlink:href="#ai"/><use transform="matrix(0.05,0,0,0.05,30,0)" xlink:href="#U"/><use transform="matrix(0.05,0,0,0.05,40,0)" xlink:href="#V"/><use transform="matrix(0.05,0,0,0.05,50,0)" xlink:href="#aj"/><use transform="matrix(0.05,0,0,0.05,59,0)" xlink:href="#P"/></g><path d="M143 4C61 4 22-44 18-125c-5-107 100-154 193-111 17 8 29 25 37 43l-32 9c-13-25-37-40-76-40-61 0-88 39-88 99 0 61 29 100 91 101 35 0 62-11 79-27v-45h-74v-28h105v86C228-13 192 4 143 4" id="ak"/><path d="M30 0v-248h187v28H63v79h144v27H63v87h162V0H30" id="al"/><path d="M127-220V0H93v-220H8v-28h204v28h-85" id="am"/><path d="M33-154v-36h34v36H33zM33 0v-36h34V0H33" id="an"/><g id="g"><use transform="matrix(0.05,0,0,0.05,0,0)" xlink:href="#ak"/><use transform="matrix(0.05,0,0,0.05,14,0)" xlink:href="#al"/><use transform="matrix(0.05,0,0,0.05,26,0)" xlink:href="#am"/><use transform="matrix(0.05,0,0,0.05,34.95,0)" xlink:href="#an"/></g><path d="M33 0v-38h34V0H33" id="ao"/><g id="h"><use transform="matrix(0.05,0,0,0.05,0,0)" xlink:href="#Y"/><use transform="matrix(0.05,0,0,0.05,10,0)" xlink:href="#af"/><use transform="matrix(0.05,0,0,0.05,15,0)" xlink:href="#af"/><use transform="matrix(0.05,0,0,0.05,20,0)" xlink:href="#ai"/><use transform="matrix(0.05,0,0,0.05,30,0)" xlink:href="#ac"/><use transform="matrix(0.05,0,0,0.05,39,0)" xlink:href="#an"/><use transform="matrix(0.05,0,0,0.05,44,0)" xlink:href="#ad"/><use transform="matrix(0.05,0,0,0.05,49,0)" xlink:href="#ad"/><use transform="matrix(0.05,0,0,0.05,54,0)" xlink:href="#ac"/><use transform="matrix(0.05,0,0,0.05,63,0)" xlink:href="#M"/><use transform="matrix(0.05,0,0,0.05,72,0)" xlink:href="#ag"/><use transform="matrix(0.05,0,0,0.05,77,0)" xlink:href="#aa"/><use transform="matrix(0.05,0,0,0.05,87,0)" xlink:href="#ac"/><use transform="matrix(0.05,0,0,0.05,96,0)" xlink:href="#O"/><use transform="matrix(0.05,0,0,0.05,110.95,0)" xlink:href="#O"/><use transform="matrix(0.05,0,0,0.05,125.9,0)" xlink:href="#V"/><use transform="matrix(0.05,0,0,0.05,135.9,0)" xlink:href="#T"/><use transform="matrix(0.05,0,0,0.05,145.9,0)" xlink:href="#W"/><use transform="matrix(0.05,0,0,0.05,155.9,0)" xlink:href="#P"/><use transform="matrix(0.05,0,0,0.05,165.9,0)" xlink:href="#Q"/><use transform="matrix(0.05,0,0,0.05,169.85,0)" xlink:href="#Q"/><use transform="matrix(0.05,0,0,0.05,173.79999999999998,0)" xlink:href="#ao"/><use transform="matrix(0.05,0,0,0.05,178.79999999999998,0)" xlink:href="#T"/><use transform="matrix(0.05,0,0,0.05,188.79999999999998,0)" xlink:href="#V"/><use transform="matrix(0.05,0,0,0.05,198.79999999999998,0)" xlink:href="#S"/><use transform="matrix(0.05,0,0,0.05,202.74999999999997,0)" xlink:href="#ac"/><use transform="matrix(0.05,0,0,0.05,211.74999999999997,0)" xlink:href="#ao"/><use transform="matrix(0.05,0,0,0.05,216.74999999999997,0)" xlink:href="#V"/><use transform="matrix(0.05,0,0,0.05,226.74999999999997,0)" xlink:href="#R"/><use transform="matrix(0.05,0,0,0.05,236.74999999999997,0)" xlink:href="#P"/><use transform="matrix(0.05,0,0,0.05,246.74999999999997,0)" xlink:href="#aa"/><use transform="matrix(0.05,0,0,0.05,256.75,0)" xlink:href="#ao"/><use transform="matrix(0.05,0,0,0.05,261.75,0)" xlink:href="#T"/><use transform="matrix(0.05,0,0,0.05,271.75,0)" xlink:href="#aa"/><use transform="matrix(0.05,0,0,0.05,281.75,0)" xlink:href="#ad"/><use transform="matrix(0.05,0,0,0.05,286.75,0)" xlink:href="#X"/><use transform="matrix(0.05,0,0,0.05,296.75,0)" xlink:href="#V"/><use transform="matrix(0.05,0,0,0.05,306.75,0)" xlink:href="#ae"/><use transform="matrix(0.05,0,0,0.05,315.75,0)" xlink:href="#N"/><use transform="matrix(0.05,0,0,0.05,324.75,0)" xlink:href="#P"/><use transform="matrix(0.05,0,0,0.05,334.75,0)" xlink:href="#T"/><use transform="matrix(0.05,0,0,0.05,344.75,0)" xlink:href="#R"/><use transform="matrix(0.05,0,0,0.05,354.75,0)" xlink:href="#ad"/></g><path d="M27 0v-27h64v-190l-56 39v-29l58-41h29v221h61V0H27" id="ap"/><path d="M103-251c84 0 111 97 45 133-19 10-37 24-39 52H78c0-63 77-55 77-114 0-30-21-42-52-43-32 0-53 17-56 46l-32-2c7-45 34-72 88-72zM77 0v-35h34V0H77" id="aq"/><path d="M18-150v-26h174v26H18zm0 90v-26h174v26H18" id="ar"/><g id="i"><use transform="matrix(0.05,0,0,0.05,0,0)" xlink:href="#V"/><use transform="matrix(0.05,0,0,0.05,10,0)" xlink:href="#ai"/><use transform="matrix(0.05,0,0,0.05,20,0)" xlink:href="#S"/><use transform="matrix(0.05,0,0,0.05,23.95,0)" xlink:href="#ad"/><use transform="matrix(0.05,0,0,0.05,28.950000000000003,0)" xlink:href="#aj"/><use transform="matrix(0.05,0,0,0.05,37.95,0)" xlink:href="#ap"/><use transform="matrix(0.05,0,0,0.05,47.95,0)" xlink:href="#ad"/><use transform="matrix(0.05,0,0,0.05,52.95,0)" xlink:href="#Y"/><use transform="matrix(0.05,0,0,0.05,62.95,0)" xlink:href="#P"/><use transform="matrix(0.05,0,0,0.05,72.95,0)" xlink:href="#T"/><use transform="matrix(0.05,0,0,0.05,82.95,0)" xlink:href="#af"/><use transform="matrix(0.05,0,0,0.05,87.95,0)" xlink:href="#O"/><use transform="matrix(0.05,0,0,0.05,102.9,0)" xlink:href="#V"/><use transform="matrix(0.05,0,0,0.05,112.9,0)" xlink:href="#T"/><use transform="matrix(0.05,0,0,0.05,122.9,0)" xlink:href="#W"/><use transform="matrix(0.05,0,0,0.05,132.9,0)" xlink:href="#P"/><use transform="matrix(0.05,0,0,0.05,142.9,0)" xlink:href="#Q"/><use transform="matrix(0.05,0,0,0.05,146.85,0)" xlink:href="#Q"/><use transform="matrix(0.05,0,0,0.05,150.79999999999998,0)" xlink:href="#aa"/><use transform="matrix(0.05,0,0,0.05,160.79999999999998,0)" xlink:href="#ai"/><use transform="matrix(0.05,0,0,0.05,170.79999999999998,0)" xlink:href="#ai"/><use transform="matrix(0.05,0,0,0.05,180.79999999999998,0)" xlink:href="#U"/><use transform="matrix(0.05,0,0,0.05,190.79999999999998,0)" xlink:href="#V"/><use transform="matrix(0.05,0,0,0.05,200.79999999999998,0)" xlink:href="#aj"/><use transform="matrix(0.05,0,0,0.05,209.79999999999995,0)" xlink:href="#P"/><use transform="matrix(0.05,0,0,0.05,219.79999999999995,0)" xlink:href="#ad"/><use transform="matrix(0.05,0,0,0.05,224.79999999999995,0)" xlink:href="#aq"/><use transform="matrix(0.05,0,0,0.05,234.79999999999995,0)" xlink:href="#aa"/><use transform="matrix(0.05,0,0,0.05,244.79999999999995,0)" xlink:href="#ai"/><use transform="matrix(0.05,0,0,0.05,254.79999999999995,0)" xlink:href="#ai"/><use transform="matrix(0.05,0,0,0.05,264.79999999999995,0)" xlink:href="#U"/><use transform="matrix(0.05,0,0,0.05,274.79999999999995,0)" xlink:href="#V"/><use transform="matrix(0.05,0,0,0.05,284.79999999999995,0)" xlink:href="#aj"/><use transform="matrix(0.05,0,0,0.05,293.79999999999995,0)" xlink:href="#P"/><use transform="matrix(0.05,0,0,0.05,303.79999999999995,0)" xlink:href="#S"/><use transform="matrix(0.05,0,0,0.05,307.74999999999994,0)" xlink:href="#R"/><use transform="matrix(0.05,0,0,0.05,317.74999999999994,0)" xlink:href="#ar"/></g><path d="M30-248c87 1 191-15 191 75 0 78-77 80-158 76V0H30v-248zm33 125c57 0 124 11 124-50 0-59-68-47-124-48v98" id="as"/><path d="M232-93c-1 65-40 97-104 97C67 4 28-28 28-90v-158h33c8 89-33 224 67 224 102 0 64-133 71-224h33v155" id="at"/><g id="j"><use transform="matrix(0.05,0,0,0.05,0,0)" xlink:href="#as"/><use transform="matrix(0.05,0,0,0.05,12,0)" xlink:href="#at"/><use transform="matrix(0.05,0,0,0.05,24.950000000000003,0)" xlink:href="#am"/><use transform="matrix(0.05,0,0,0.05,33.900000000000006,0)" xlink:href="#an"/></g><g id="k"><use transform="matrix(0.05,0,0,0.05,0,0)" xlink:href="#V"/><use transform="matrix(0.05,0,0,0.05,10,0)" xlink:href="#ai"/><use transform="matrix(0.05,0,0,0.05,20,0)" xlink:href="#S"/><use transform="matrix(0.05,0,0,0.05,23.95,0)" xlink:href="#ad"/><use transform="matrix(0.05,0,0,0.05,28.950000000000003,0)" xlink:href="#aj"/><use transform="matrix(0.05,0,0,0.05,37.95,0)" xlink:href="#ap"/><use transform="matrix(0.05,0,0,0.05,47.95,0)" xlink:href="#ad"/><use transform="matrix(0.05,0,0,0.05,52.95,0)" xlink:href="#aj"/><use transform="matrix(0.05,0,0,0.05,61.95,0)" xlink:href="#W"/><use transform="matrix(0.05,0,0,0.05,71.95,0)" xlink:href="#Z"/><use transform="matrix(0.05,0,0,0.05,77.9,0)" xlink:href="#R"/><use transform="matrix(0.05,0,0,0.05,87.9,0)" xlink:href="#P"/><use transform="matrix(0.05,0,0,0.05,97.9,0)" xlink:href="#Z"/><use transform="matrix(0.05,0,0,0.05,103.85000000000001,0)" xlink:href="#S"/><use transform="matrix(0.05,0,0,0.05,107.80000000000001,0)" xlink:href="#T"/><use transform="matrix(0.05,0,0,0.05,117.80000000000001,0)" xlink:href="#U"/><use transform="matrix(0.05,0,0,0.05,127.80000000000001,0)" xlink:href="#O"/><use transform="matrix(0.05,0,0,0.05,142.75,0)" xlink:href="#V"/><use transform="matrix(0.05,0,0,0.05,152.75,0)" xlink:href="#T"/><use transform="matrix(0.05,0,0,0.05,162.75,0)" xlink:href="#W"/><use transform="matrix(0.05,0,0,0.05,172.75,0)" xlink:href="#P"/><use transform="matrix(0.05,0,0,0.05,182.75,0)" xlink:href="#Q"/><use transform="matrix(0.05,0,0,0.05,186.7,0)" xlink:href="#Q"/><use transform="matrix(0.05,0,0,0.05,190.64999999999998,0)" xlink:href="#aa"/><use transform="matrix(0.05,0,0,0.05,200.64999999999998,0)" xlink:href="#ai"/><use transform="matrix(0.05,0,0,0.05,210.64999999999998,0)" xlink:href="#ai"/><use transform="matrix(0.05,0,0,0.05,220.64999999999998,0)" xlink:href="#U"/><use transform="matrix(0.05,0,0,0.05,230.64999999999998,0)" xlink:href="#V"/><use transform="matrix(0.05,0,0,0.05,240.64999999999998,0)" xlink:href="#aj"/><use transform="matrix(0.05,0,0,0.05,249.64999999999998,0)" xlink:href="#P"/><use transform="matrix(0.05,0,0,0.05,259.65,0)" xlink:href="#ad"/><use transform="matrix(0.05,0,0,0.05,264.65,0)" xlink:href="#an"/><use transform="matrix(0.05,0,0,0.05,269.65,0)" xlink:href="#aa"/><use transform="matrix(0.05,0,0,0.05,279.65,0)" xlink:href="#ai"/><use transform="matrix(0.05,0,0,0.05,289.65,0)" xlink:href="#ai"/><use transform="matrix(0.05,0,0,0.05,299.65,0)" xlink:href="#U"/><use transform="matrix(0.05,0,0,0.05,309.65,0)" xlink:href="#V"/><use transform="matrix(0.05,0,0,0.05,319.65,0)" xlink:href="#aj"/><use transform="matrix(0.05,0,0,0.05,328.65,0)" xlink:href="#P"/><use transform="matrix(0.05,0,0,0.05,338.65,0)" xlink:href="#S"/><use transform="matrix(0.05,0,0,0.05,342.59999999999997,0)" xlink:href="#R"/></g><g id="l"><use transform="matrix(0.05,0,0,0.05,0,0)" xlink:href="#O"/><use transform="matrix(0.05,0,0,0.05,14.950000000000001,0)" xlink:href="#V"/><use transform="matrix(0.05,0,0,0.05,24.950000000000003,0)" xlink:href="#T"/><use transform="matrix(0.05,0,0,0.05,34.95,0)" xlink:href="#W"/><use transform="matrix(0.05,0,0,0.05,44.95,0)" xlink:href="#P"/><use transform="matrix(0.05,0,0,0.05,54.95,0)" xlink:href="#Q"/><use transform="matrix(0.05,0,0,0.05,58.900000000000006,0)" xlink:href="#Q"/></g><g id="m"><use transform="matrix(0.05,0,0,0.05,0,0)" xlink:href="#ah"/><use transform="matrix(0.05,0,0,0.05,5.95,0)" xlink:href="#aa"/><use transform="matrix(0.05,0,0,0.05,15.949999999999998,0)" xlink:href="#ai"/><use transform="matrix(0.05,0,0,0.05,25.950000000000003,0)" xlink:href="#ai"/><use transform="matrix(0.05,0,0,0.05,35.95,0)" xlink:href="#U"/><use transform="matrix(0.05,0,0,0.05,45.95,0)" xlink:href="#V"/><use transform="matrix(0.05,0,0,0.05,55.95,0)" xlink:href="#aj"/><use transform="matrix(0.05,0,0,0.05,64.95,0)" xlink:href="#P"/><use transform="matrix(0.05,0,0,0.05,74.95,0)" xlink:href="#Z"/></g><path d="M140-251c81 0 123 46 123 126C263-46 219 4 140 4 59 4 17-45 17-125s42-126 123-126zm0 227c63 0 89-41 89-101s-29-99-89-99c-61 0-89 39-89 99S79-25 140-24" id="au"/><g id="n"><use transform="matrix(0.05,0,0,0.05,0,0)" xlink:href="#as"/><use transform="matrix(0.05,0,0,0.05,12,0)" xlink:href="#au"/><use transform="matrix(0.05,0,0,0.05,26,0)" xlink:href="#L"/><use transform="matrix(0.05,0,0,0.05,38,0)" xlink:href="#am"/><use transform="matrix(0.05,0,0,0.05,46.95,0)" xlink:href="#an"/></g><g id="o"><use transform="matrix(0.05,0,0,0.05,0,0)" xlink:href="#Y"/><use transform="matrix(0.05,0,0,0.05,10,0)" xlink:href="#af"/><use transform="matrix(0.05,0,0,0.05,15,0)" xlink:href="#af"/><use transform="matrix(0.05,0,0,0.05,20,0)" xlink:href="#ai"/><use transform="matrix(0.05,0,0,0.05,30,0)" xlink:href="#an"/><use transform="matrix(0.05,0,0,0.05,35,0)" xlink:href="#ad"/><use transform="matrix(0.05,0,0,0.05,40,0)" xlink:href="#ad"/><use transform="matrix(0.05,0,0,0.05,45,0)" xlink:href="#aa"/><use transform="matrix(0.05,0,0,0.05,55,0)" xlink:href="#ai"/><use transform="matrix(0.05,0,0,0.05,65,0)" xlink:href="#ai"/><use transform="matrix(0.05,0,0,0.05,75,0)" xlink:href="#U"/><use transform="matrix(0.05,0,0,0.05,85,0)" xlink:href="#V"/><use transform="matrix(0.05,0,0,0.05,95,0)" xlink:href="#aj"/><use transform="matrix(0.05,0,0,0.05,104,0)" xlink:href="#P"/><use transform="matrix(0.05,0,0,0.05,114,0)" xlink:href="#ad"/><use transform="matrix(0.05,0,0,0.05,119,0)" xlink:href="#V"/><use transform="matrix(0.05,0,0,0.05,129,0)" xlink:href="#ai"/><use transform="matrix(0.05,0,0,0.05,139,0)" xlink:href="#S"/><use transform="matrix(0.05,0,0,0.05,142.95,0)" xlink:href="#ad"/><use transform="matrix(0.05,0,0,0.05,147.95,0)" xlink:href="#aj"/><use transform="matrix(0.05,0,0,0.05,156.95,0)" xlink:href="#ap"/><use transform="matrix(0.05,0,0,0.05,166.95,0)" xlink:href="#ad"/><use transform="matrix(0.05,0,0,0.05,171.95,0)" xlink:href="#aa"/><use transform="matrix(0.05,0,0,0.05,181.95,0)" xlink:href="#ai"/><use transform="matrix(0.05,0,0,0.05,191.95,0)" xlink:href="#ai"/><use transform="matrix(0.05,0,0,0.05,201.95,0)" xlink:href="#U"/><use transform="matrix(0.05,0,0,0.05,211.94999999999996,0)" xlink:href="#V"/><use transform="matrix(0.05,0,0,0.05,221.94999999999996,0)" xlink:href="#aj"/><use transform="matrix(0.05,0,0,0.05,230.94999999999996,0)" xlink:href="#P"/><use transform="matrix(0.05,0,0,0.05,240.94999999999996,0)" xlink:href="#Z"/></g><g id="p"><use transform="matrix(0.05,0,0,0.05,0,0)" xlink:href="#U"/><use transform="matrix(0.05,0,0,0.05,10,0)" xlink:href="#aa"/><use transform="matrix(0.05,0,0,0.05,20,0)" xlink:href="#ac"/><use transform="matrix(0.05,0,0,0.05,29,0)" xlink:href="#M"/><use transform="matrix(0.05,0,0,0.05,38,0)" xlink:href="#ac"/></g><g id="q"><use transform="matrix(0.05,0,0,0.05,0,0)" xlink:href="#Y"/><use transform="matrix(0.05,0,0,0.05,10,0)" xlink:href="#af"/><use transform="matrix(0.05,0,0,0.05,15,0)" xlink:href="#af"/><use transform="matrix(0.05,0,0,0.05,20,0)" xlink:href="#ai"/><use transform="matrix(0.05,0,0,0.05,30,0)" xlink:href="#an"/><use transform="matrix(0.05,0,0,0.05,35,0)" xlink:href="#ad"/><use transform="matrix(0.05,0,0,0.05,40,0)" xlink:href="#ad"/><use transform="matrix(0.05,0,0,0.05,45,0)" xlink:href="#aa"/><use transform="matrix(0.05,0,0,0.05,55,0)" xlink:href="#ai"/><use transform="matrix(0.05,0,0,0.05,65,0)" xlink:href="#ai"/><use transform="matrix(0.05,0,0,0.05,75,0)" xlink:href="#U"/><use transform="matrix(0.05,0,0,0.05,85,0)" xlink:href="#V"/><use transform="matrix(0.05,0,0,0.05,95,0)" xlink:href="#aj"/><use transform="matrix(0.05,0,0,0.05,104,0)" xlink:href="#P"/><use transform="matrix(0.05,0,0,0.05,114,0)" xlink:href="#ad"/><use transform="matrix(0.05,0,0,0.05,119,0)" xlink:href="#V"/><use transform="matrix(0.05,0,0,0.05,129,0)" xlink:href="#ai"/><use transform="matrix(0.05,0,0,0.05,139,0)" xlink:href="#S"/><use transform="matrix(0.05,0,0,0.05,142.95,0)" xlink:href="#ad"/><use transform="matrix(0.05,0,0,0.05,147.95,0)" xlink:href="#aj"/><use transform="matrix(0.05,0,0,0.05,156.95,0)" xlink:href="#ap"/><use transform="matrix(0.05,0,0,0.05,166.95,0)" xlink:href="#ad"/><use transform="matrix(0.05,0,0,0.05,171.95,0)" xlink:href="#an"/><use transform="matrix(0.05,0,0,0.05,176.95,0)" xlink:href="#aa"/><use transform="matrix(0.05,0,0,0.05,186.95,0)" xlink:href="#ai"/><use transform="matrix(0.05,0,0,0.05,196.95,0)" xlink:href="#ai"/><use transform="matrix(0.05,0,0,0.05,206.94999999999996,0)" xlink:href="#U"/><use transform="matrix(0.05,0,0,0.05,216.94999999999996,0)" xlink:href="#V"/><use transform="matrix(0.05,0,0,0.05,226.94999999999996,0)" xlink:href="#aj"/><use transform="matrix(0.05,0,0,0.05,235.94999999999996,0)" xlink:href="#P"/><use transform="matrix(0.05,0,0,0.05,245.94999999999996,0)" xlink:href="#S"/><use transform="matrix(0.05,0,0,0.05,249.89999999999998,0)" xlink:href="#R"/></g><path d="M205 0l-28-72H64L36 0H1l101-248h38L239 0h-34zm-38-99l-47-123c-12 45-31 82-46 123h93" id="av"/><path d="M212-179c-10-28-35-45-73-45-59 0-87 40-87 99 0 60 29 101 89 101 43 0 62-24 78-52l27 14C228-24 195 4 139 4 59 4 22-46 18-125c-6-104 99-153 187-111 19 9 31 26 39 46" id="aw"/><path d="M197 0v-115H63V0H30v-248h33v105h134v-105h34V0h-34" id="ax"/><g id="r"><use transform="matrix(0.05,0,0,0.05,0,0)" xlink:href="#as"/><use transform="matrix(0.05,0,0,0.05,10.65,0)" xlink:href="#av"/><use transform="matrix(0.05,0,0,0.05,21.3,0)" xlink:href="#am"/><use transform="matrix(0.05,0,0,0.05,32.25,0)" xlink:href="#aw"/><use transform="matrix(0.05,0,0,0.05,45.2,0)" xlink:href="#ax"/><use transform="matrix(0.05,0,0,0.05,58.150000000000006,0)" xlink:href="#an"/></g><g id="s"><use transform="matrix(0.05,0,0,0.05,0,0)" xlink:href="#ac"/><use transform="matrix(0.05,0,0,0.05,9,0)" xlink:href="#M"/><use transform="matrix(0.05,0,0,0.05,18,0)" xlink:href="#ag"/><use transform="matrix(0.05,0,0,0.05,23,0)" xlink:href="#aa"/><use transform="matrix(0.05,0,0,0.05,33,0)" xlink:href="#ac"/><use transform="matrix(0.05,0,0,0.05,42,0)" xlink:href="#O"/><use transform="matrix(0.05,0,0,0.05,56.95,0)" xlink:href="#O"/><use transform="matrix(0.05,0,0,0.05,71.9,0)" xlink:href="#V"/><use transform="matrix(0.05,0,0,0.05,81.9,0)" xlink:href="#T"/><use transform="matrix(0.05,0,0,0.05,91.9,0)" xlink:href="#W"/><use transform="matrix(0.05,0,0,0.05,101.9,0)" xlink:href="#P"/><use transform="matrix(0.05,0,0,0.05,111.9,0)" xlink:href="#Q"/><use transform="matrix(0.05,0,0,0.05,115.85000000000001,0)" xlink:href="#Q"/></g><path d="M87 75C49 33 22-17 22-94c0-76 28-126 65-167h31c-38 41-64 92-64 168S80 34 118 75H87" id="ay"/><path d="M141 0L90-78 38 0H4l68-98-65-92h35l48 74 47-74h35l-64 92 68 98h-35" id="az"/><path d="M33-261c38 41 65 92 65 168S71 34 33 75H2C39 34 66-17 66-93S39-220 2-261h31" id="aA"/><g id="t"><use transform="matrix(0.05,0,0,0.05,0,0)" xlink:href="#ay"/><use transform="matrix(0.05,0,0,0.05,5.95,0)" xlink:href="#ai"/><use transform="matrix(0.05,0,0,0.05,15.949999999999998,0)" xlink:href="#Z"/><use transform="matrix(0.05,0,0,0.05,21.9,0)" xlink:href="#aa"/><use transform="matrix(0.05,0,0,0.05,31.899999999999995,0)" xlink:href="#az"/><use transform="matrix(0.05,0,0,0.05,40.9,0)" xlink:href="#M"/><use transform="matrix(0.05,0,0,0.05,49.9,0)" xlink:href="#aA"/></g><g id="u"><use transform="matrix(0.05,0,0,0.05,0,0)" xlink:href="#Y"/><use transform="matrix(0.05,0,0,0.05,10,0)" xlink:href="#af"/><use transform="matrix(0.05,0,0,0.05,15,0)" xlink:href="#af"/><use transform="matrix(0.05,0,0,0.05,20,0)" xlink:href="#ai"/><use transform="matrix(0.05,0,0,0.05,30,0)" xlink:href="#an"/><use transform="matrix(0.05,0,0,0.05,35,0)" xlink:href="#ad"/><use transform="matrix(0.05,0,0,0.05,40,0)" xlink:href="#ad"/><use transform="matrix(0.05,0,0,0.05,45,0)" xlink:href="#ac"/><use transform="matrix(0.05,0,0,0.05,54,0)" xlink:href="#M"/><use transform="matrix(0.05,0,0,0.05,63,0)" xlink:href="#ag"/><use transform="matrix(0.05,0,0,0.05,68,0)" xlink:href="#aa"/><use transform="matrix(0.05,0,0,0.05,78,0)" xlink:href="#ac"/><use transform="matrix(0.05,0,0,0.05,87,0)" xlink:href="#O"/><use transform="matrix(0.05,0,0,0.05,101.95,0)" xlink:href="#O"/><use transform="matrix(0.05,0,0,0.05,116.9,0)" xlink:href="#V"/><use transform="matrix(0.05,0,0,0.05,126.9,0)" xlink:href="#T"/><use transform="matrix(0.05,0,0,0.05,136.9,0)" xlink:href="#W"/><use transform="matrix(0.05,0,0,0.05,146.9,0)" xlink:href="#P"/><use transform="matrix(0.05,0,0,0.05,156.9,0)" xlink:href="#Q"/><use transform="matrix(0.05,0,0,0.05,160.85,0)" xlink:href="#Q"/><use transform="matrix(0.05,0,0,0.05,164.79999999999998,0)" xlink:href="#ah"/><use transform="matrix(0.05,0,0,0.05,170.74999999999997,0)" xlink:href="#X"/><use transform="matrix(0.05,0,0,0.05,180.74999999999997,0)" xlink:href="#V"/><use transform="matrix(0.05,0,0,0.05,190.74999999999997,0)" xlink:href="#ae"/><use transform="matrix(0.05,0,0,0.05,199.74999999999997,0)" xlink:href="#N"/><use transform="matrix(0.05,0,0,0.05,208.74999999999997,0)" xlink:href="#P"/><use transform="matrix(0.05,0,0,0.05,218.74999999999997,0)" xlink:href="#T"/><use transform="matrix(0.05,0,0,0.05,228.74999999999997,0)" xlink:href="#R"/><use transform="matrix(0.05,0,0,0.05,238.74999999999997,0)" xlink:href="#ad"/></g><path d="M9 0v-24l116-142H16v-24h144v24L44-24h123V0H9" id="aB"/><g id="v"><use transform="matrix(0.05,0,0,0.05,0,0)" xlink:href="#av"/><use transform="matrix(0.05,0,0,0.05,12,0)" xlink:href="#aB"/><use transform="matrix(0.05,0,0,0.05,21,0)" xlink:href="#W"/><use transform="matrix(0.05,0,0,0.05,31,0)" xlink:href="#Z"/><use transform="matrix(0.05,0,0,0.05,36.95,0)" xlink:href="#P"/></g><path d="M30-248c118-7 216 8 213 122C240-48 200 0 122 0H30v-248zM63-27c89 8 146-16 146-99s-60-101-146-95v194" id="aC"/><g id="w"><use transform="matrix(0.05,0,0,0.05,0,0)" xlink:href="#av"/><use transform="matrix(0.05,0,0,0.05,12,0)" xlink:href="#aC"/></g><g id="x"><use transform="matrix(0.05,0,0,0.05,0,0)" xlink:href="#ak"/><use transform="matrix(0.05,0,0,0.05,14,0)" xlink:href="#P"/><use transform="matrix(0.05,0,0,0.05,24,0)" xlink:href="#af"/></g><g id="y"><use transform="matrix(0.05,0,0,0.05,0,0)" xlink:href="#V"/><use transform="matrix(0.05,0,0,0.05,10,0)" xlink:href="#W"/><use transform="matrix(0.05,0,0,0.05,20,0)" xlink:href="#af"/><use transform="matrix(0.05,0,0,0.05,25,0)" xlink:href="#Y"/><use transform="matrix(0.05,0,0,0.05,35,0)" xlink:href="#P"/><use transform="matrix(0.05,0,0,0.05,45,0)" xlink:href="#T"/><use transform="matrix(0.05,0,0,0.05,55,0)" xlink:href="#af"/><use transform="matrix(0.05,0,0,0.05,60,0)" xlink:href="#S"/><use transform="matrix(0.05,0,0,0.05,63.95,0)" xlink:href="#ae"/><use transform="matrix(0.05,0,0,0.05,72.95,0)" xlink:href="#V"/><use transform="matrix(0.05,0,0,0.05,82.95,0)" xlink:href="#af"/><use transform="matrix(0.05,0,0,0.05,87.95,0)" xlink:href="#S"/><use transform="matrix(0.05,0,0,0.05,91.9,0)" xlink:href="#aa"/><use transform="matrix(0.05,0,0,0.05,101.9,0)" xlink:href="#T"/></g><g id="z"><use transform="matrix(0.05,0,0,0.05,0,0)" xlink:href="#af"/><use transform="matrix(0.05,0,0,0.05,5,0)" xlink:href="#aa"/><use transform="matrix(0.05,0,0,0.05,15,0)" xlink:href="#N"/><use transform="matrix(0.05,0,0,0.05,24,0)" xlink:href="#P"/><use transform="matrix(0.05,0,0,0.05,34,0)" xlink:href="#T"/><use transform="matrix(0.05,0,0,0.05,44,0)" xlink:href="#ac"/></g><path d="M137 0h-34L2-248h35l83 218 83-218h36" id="aD"/><g id="A"><use transform="matrix(0.05,0,0,0.05,0,0)" xlink:href="#aD"/><use transform="matrix(0.05,0,0,0.05,11,0)" xlink:href="#P"/><use transform="matrix(0.05,0,0,0.05,21,0)" xlink:href="#Z"/><use transform="matrix(0.05,0,0,0.05,26.950000000000003,0)" xlink:href="#S"/><use transform="matrix(0.05,0,0,0.05,30.899999999999995,0)" xlink:href="#ag"/><use transform="matrix(0.05,0,0,0.05,35.9,0)" xlink:href="#S"/><use transform="matrix(0.05,0,0,0.05,39.85,0)" xlink:href="#ac"/><use transform="matrix(0.05,0,0,0.05,48.85,0)" xlink:href="#P"/><use transform="matrix(0.05,0,0,0.05,58.85,0)" xlink:href="#Z"/></g><g id="B"><use transform="matrix(0.05,0,0,0.05,0,0)" xlink:href="#L"/><use transform="matrix(0.05,0,0,0.05,12,0)" xlink:href="#V"/><use transform="matrix(0.05,0,0,0.05,22,0)" xlink:href="#N"/><use transform="matrix(0.05,0,0,0.05,31,0)" xlink:href="#ac"/><use transform="matrix(0.05,0,0,0.05,40,0)" xlink:href="#X"/><use transform="matrix(0.05,0,0,0.05,50,0)" xlink:href="#P"/><use transform="matrix(0.05,0,0,0.05,60,0)" xlink:href="#Y"/><use transform="matrix(0.05,0,0,0.05,70,0)" xlink:href="#V"/><use transform="matrix(0.05,0,0,0.05,80,0)" xlink:href="#T"/><use transform="matrix(0.05,0,0,0.05,90,0)" xlink:href="#R"/><use transform="matrix(0.05,0,0,0.05,100,0)" xlink:href="#Q"/><use transform="matrix(0.05,0,0,0.05,103.95,0)" xlink:href="#P"/><use transform="matrix(0.05,0,0,0.05,113.95,0)" xlink:href="#Z"/></g><g id="C"><use transform="matrix(0.05,0,0,0.05,0,0)" xlink:href="#af"/><use transform="matrix(0.05,0,0,0.05,5,0)" xlink:href="#Z"/><use transform="matrix(0.05,0,0,0.05,10.95,0)" xlink:href="#M"/><use transform="matrix(0.05,0,0,0.05,19.95,0)" xlink:href="#N"/><use transform="matrix(0.05,0,0,0.05,28.950000000000003,0)" xlink:href="#N"/><use transform="matrix(0.05,0,0,0.05,37.95,0)" xlink:href="#P"/><use transform="matrix(0.05,0,0,0.05,47.95,0)" xlink:href="#Z"/></g><path d="M141-36C126-15 110 5 73 4 37 3 15-17 15-53c-1-64 63-63 125-63 3-35-9-54-41-54-24 1-41 7-42 31l-33-3c5-37 33-52 76-52 45 0 72 20 72 64v82c-1 20 7 32 28 27v20c-31 9-61-2-59-35zM48-53c0 20 12 33 32 33 41-3 63-29 60-74-43 2-92-5-92 41zm50-237c26 0 42 16 42 42 0 27-18 40-42 43-25-2-43-16-43-43 0-26 17-42 43-42zm-24 42c-2 26 37 32 45 10 6-16-3-33-21-33-16 0-23 10-24 23" id="aE"/><g id="D"><use transform="matrix(0.05,0,0,0.05,0,0)" xlink:href="#ai"/><use transform="matrix(0.05,0,0,0.05,10,0)" xlink:href="#aE"/></g><path d="M109-170H84l-4-78h32zm-65 0H19l-4-78h33" id="aF"/><g id="E"><use transform="matrix(0.05,0,0,0.05,0,0)" xlink:href="#aF"/><use transform="matrix(0.05,0,0,0.05,6.3500000000000005,0)" xlink:href="#ai"/><use transform="matrix(0.05,0,0,0.05,16.35,0)" xlink:href="#Q"/><use transform="matrix(0.05,0,0,0.05,20.3,0)" xlink:href="#V"/><use transform="matrix(0.05,0,0,0.05,30.3,0)" xlink:href="#M"/><use transform="matrix(0.05,0,0,0.05,39.3,0)" xlink:href="#ah"/><use transform="matrix(0.05,0,0,0.05,45.25,0)" xlink:href="#N"/><use transform="matrix(0.05,0,0,0.05,54.25,0)" xlink:href="#T"/><use transform="matrix(0.05,0,0,0.05,64.25,0)" xlink:href="#V"/><use transform="matrix(0.05,0,0,0.05,74.25,0)" xlink:href="#ai"/><use transform="matrix(0.05,0,0,0.05,84.25,0)" xlink:href="#ai"/><use transform="matrix(0.05,0,0,0.05,94.25,0)" xlink:href="#aF"/></g><use transform="matrix(0.05,0,0,0.05,0,0)" xlink:href="#S" id="F"/><g id="G"><use transform="matrix(0.05,0,0,0.05,0,0)" xlink:href="#U"/><use transform="matrix(0.05,0,0,0.05,10,0)" xlink:href="#aa"/><use transform="matrix(0.05,0,0,0.05,20,0)" xlink:href="#ac"/><use transform="matrix(0.05,0,0,0.05,29,0)" xlink:href="#M"/><use transform="matrix(0.05,0,0,0.05,38,0)" xlink:href="#ac"/></g><path d="M233-177c-1 41-23 64-60 70L243 0h-38l-65-103H63V0H30v-248c88 3 205-21 203 71zM63-129c60-2 137 13 137-47 0-61-80-42-137-45v92" id="aG"/><g id="H"><use transform="matrix(0.05,0,0,0.05,0,0)" xlink:href="#aG"/><use transform="matrix(0.05,0,0,0.05,12.950000000000001,0)" xlink:href="#P"/><use transform="matrix(0.05,0,0,0.05,22.950000000000003,0)" xlink:href="#R"/><use transform="matrix(0.05,0,0,0.05,32.95,0)" xlink:href="#S"/><use transform="matrix(0.05,0,0,0.05,36.900000000000006,0)" xlink:href="#Z"/><use transform="matrix(0.05,0,0,0.05,42.85000000000001,0)" xlink:href="#P"/><use transform="matrix(0.05,0,0,0.05,52.85,0)" xlink:href="#ae"/><use transform="matrix(0.05,0,0,0.05,61.85,0)" xlink:href="#af"/><use transform="matrix(0.05,0,0,0.05,66.85000000000001,0)" xlink:href="#an"/></g><g id="I"><use transform="matrix(0.05,0,0,0.05,0,0)" xlink:href="#Y"/><use transform="matrix(0.05,0,0,0.05,10,0)" xlink:href="#af"/><use transform="matrix(0.05,0,0,0.05,15,0)" xlink:href="#af"/><use transform="matrix(0.05,0,0,0.05,20,0)" xlink:href="#ai"/><use transform="matrix(0.05,0,0,0.05,30,0)" xlink:href="#ac"/><use transform="matrix(0.05,0,0,0.05,39,0)" xlink:href="#an"/><use transform="matrix(0.05,0,0,0.05,44,0)" xlink:href="#ad"/><use transform="matrix(0.05,0,0,0.05,49,0)" xlink:href="#ad"/><use transform="matrix(0.05,0,0,0.05,54,0)" xlink:href="#ac"/><use transform="matrix(0.05,0,0,0.05,63,0)" xlink:href="#M"/><use transform="matrix(0.05,0,0,0.05,72,0)" xlink:href="#ag"/><use transform="matrix(0.05,0,0,0.05,77,0)" xlink:href="#aa"/><use transform="matrix(0.05,0,0,0.05,87,0)" xlink:href="#ac"/><use transform="matrix(0.05,0,0,0.05,96,0)" xlink:href="#O"/><use transform="matrix(0.05,0,0,0.05,110.95,0)" xlink:href="#O"/><use transform="matrix(0.05,0,0,0.05,125.9,0)" xlink:href="#V"/><use transform="matrix(0.05,0,0,0.05,135.9,0)" xlink:href="#T"/><use transform="matrix(0.05,0,0,0.05,145.9,0)" xlink:href="#W"/><use transform="matrix(0.05,0,0,0.05,155.9,0)" xlink:href="#P"/><use transform="matrix(0.05,0,0,0.05,165.9,0)" xlink:href="#Q"/><use transform="matrix(0.05,0,0,0.05,169.85,0)" xlink:href="#Q"/><use transform="matrix(0.05,0,0,0.05,173.79999999999998,0)" xlink:href="#ao"/><use transform="matrix(0.05,0,0,0.05,178.79999999999998,0)" xlink:href="#T"/><use transform="matrix(0.05,0,0,0.05,188.79999999999998,0)" xlink:href="#V"/><use transform="matrix(0.05,0,0,0.05,198.79999999999998,0)" xlink:href="#S"/><use transform="matrix(0.05,0,0,0.05,202.74999999999997,0)" xlink:href="#ac"/><use transform="matrix(0.05,0,0,0.05,211.74999999999997,0)" xlink:href="#ao"/><use transform="matrix(0.05,0,0,0.05,216.74999999999997,0)" xlink:href="#V"/><use transform="matrix(0.05,0,0,0.05,226.74999999999997,0)" xlink:href="#R"/><use transform="matrix(0.05,0,0,0.05,236.74999999999997,0)" xlink:href="#P"/><use transform="matrix(0.05,0,0,0.05,246.74999999999997,0)" xlink:href="#aa"/><use transform="matrix(0.05,0,0,0.05,256.75,0)" xlink:href="#ao"/><use transform="matrix(0.05,0,0,0.05,261.75,0)" xlink:href="#T"/><use transform="matrix(0.05,0,0,0.05,271.75,0)" xlink:href="#aa"/><use transform="matrix(0.05,0,0,0.05,281.75,0)" xlink:href="#ad"/><use transform="matrix(0.05,0,0,0.05,286.75,0)" xlink:href="#aq"/><use transform="matrix(0.05,0,0,0.05,296.75,0)" xlink:href="#aa"/><use transform="matrix(0.05,0,0,0.05,306.75,0)" xlink:href="#ai"/><use transform="matrix(0.05,0,0,0.05,316.75,0)" xlink:href="#ai"/><use transform="matrix(0.05,0,0,0.05,326.75,0)" xlink:href="#U"/><use transform="matrix(0.05,0,0,0.05,336.75,0)" xlink:href="#V"/><use transform="matrix(0.05,0,0,0.05,346.75,0)" xlink:href="#aj"/><use transform="matrix(0.05,0,0,0.05,355.75,0)" xlink:href="#P"/><use transform="matrix(0.05,0,0,0.05,365.75,0)" xlink:href="#S"/><use transform="matrix(0.05,0,0,0.05,369.7,0)" xlink:href="#R"/><use transform="matrix(0.05,0,0,0.05,379.7,0)" xlink:href="#ar"/></g><g id="J"><use transform="matrix(0.05,0,0,0.05,0,0)" xlink:href="#ac"/><use transform="matrix(0.05,0,0,0.05,9,0)" xlink:href="#M"/><use transform="matrix(0.05,0,0,0.05,18,0)" xlink:href="#ag"/><use transform="matrix(0.05,0,0,0.05,23,0)" xlink:href="#aa"/><use transform="matrix(0.05,0,0,0.05,33,0)" xlink:href="#ah"/><use transform="matrix(0.05,0,0,0.05,38.95,0)" xlink:href="#af"/><use transform="matrix(0.05,0,0,0.05,43.95,0)" xlink:href="#S"/><use transform="matrix(0.05,0,0,0.05,47.900000000000006,0)" xlink:href="#Q"/><use transform="matrix(0.05,0,0,0.05,51.85,0)" xlink:href="#U"/><use transform="matrix(0.05,0,0,0.05,61.85,0)" xlink:href="#V"/><use transform="matrix(0.05,0,0,0.05,71.85000000000001,0)" xlink:href="#T"/><use transform="matrix(0.05,0,0,0.05,81.85000000000001,0)" xlink:href="#U"/><use transform="matrix(0.05,0,0,0.05,91.85000000000001,0)" xlink:href="#ac"/><use transform="matrix(0.05,0,0,0.05,100.85000000000001,0)" xlink:href="#N"/><use transform="matrix(0.05,0,0,0.05,109.85000000000001,0)" xlink:href="#aa"/><use transform="matrix(0.05,0,0,0.05,119.85000000000001,0)" xlink:href="#T"/><use transform="matrix(0.05,0,0,0.05,129.85000000000002,0)" xlink:href="#af"/><use transform="matrix(0.05,0,0,0.05,134.85000000000002,0)" xlink:href="#Z"/><use transform="matrix(0.05,0,0,0.05,140.8,0)" xlink:href="#aa"/><use transform="matrix(0.05,0,0,0.05,150.8,0)" xlink:href="#Q"/><use transform="matrix(0.05,0,0,0.05,154.75,0)" xlink:href="#Q"/></g><g id="K"><use transform="matrix(0.05,0,0,0.05,0,0)" xlink:href="#af"/><use transform="matrix(0.05,0,0,0.05,5,0)" xlink:href="#S"/><use transform="matrix(0.05,0,0,0.05,8.95,0)" xlink:href="#Q"/><use transform="matrix(0.05,0,0,0.05,12.899999999999999,0)" xlink:href="#U"/><use transform="matrix(0.05,0,0,0.05,22.9,0)" xlink:href="#V"/><use transform="matrix(0.05,0,0,0.05,32.9,0)" xlink:href="#T"/><use transform="matrix(0.05,0,0,0.05,42.9,0)" xlink:href="#U"/></g></defs></g></svg>