<svg width="25" height="25" viewBox="0 0 25 25" fill="none" xmlns="http://www.w3.org/2000/svg">
<path fill-rule="evenodd" clip-rule="evenodd" d="M12.5 0.5C19.1274 0.5 24.5 5.87258 24.5 12.5C24.5 19.1274 19.1274 24.5 12.5 24.5C5.87258 24.5 0.5 19.1274 0.5 12.5C0.5 5.87258 5.87258 0.5 12.5 0.5ZM12.5 2.5C6.97715 2.5 2.5 6.97715 2.5 12.5C2.5 18.0228 6.97715 22.5 12.5 22.5C18.0228 22.5 22.5 18.0228 22.5 12.5C22.5 6.97715 18.0228 2.5 12.5 2.5ZM17.5465 8.17114L18.9456 9.60034L10.2177 17.9992L6.5 14.5182L7.89515 13.0852L10.2136 15.2034L17.5465 8.17114Z" fill="#3E3832"/>
</svg>
